<svg width="53" height="74" viewBox="0 0 53 74" fill="none" xmlns="http://www.w3.org/2000/svg">
<rect x="3" width="48" height="48" rx="24" fill="#F5D8D8"/>
<path d="M27.0002 25.6667C27.9206 25.6667 28.6668 24.9205 28.6668 24C28.6668 23.0795 27.9206 22.3333 27.0002 22.3333C26.0797 22.3333 25.3335 23.0795 25.3335 24C25.3335 24.9205 26.0797 25.6667 27.0002 25.6667Z" stroke="#CB2929" stroke-width="1.25" stroke-linecap="round" stroke-linejoin="round"/>
<path d="M33.6665 29C34.7165 27.6083 35.3332 25.875 35.3332 24C35.3332 22.125 34.7165 20.3917 33.6665 19" stroke="#CB2929" stroke-width="1.25" stroke-linecap="round" stroke-linejoin="round"/>
<path d="M20.3332 19C19.2832 20.3917 18.6665 22.125 18.6665 24C18.6665 25.875 19.2832 27.6083 20.3332 29" stroke="#CB2929" stroke-width="1.25" stroke-linecap="round" stroke-linejoin="round"/>
<path d="M31 27C31.625 26.1667 32 25.125 32 24C32 22.875 31.625 21.8333 31 21" stroke="#CB2929" stroke-width="1.25" stroke-linecap="round" stroke-linejoin="round"/>
<path d="M23 21C22.375 21.8333 22 22.875 22 24C22 25.125 22.375 26.1667 23 27" stroke="#CB2929" stroke-width="1.25" stroke-linecap="round" stroke-linejoin="round"/>
<path d="M2.09545 61L2.75383 59.1463H5.40014L6.05852 61H6.88949L4.48608 54.4545H3.6679L1.26449 61H2.09545ZM3.00312 58.4432L4.05142 55.4901H4.10256L5.15085 58.4432H3.00312ZM10.8005 58.9929C10.8005 59.9134 10.0974 60.3352 9.53487 60.3352C8.90845 60.3352 8.46101 59.875 8.46101 59.1591V56.0909H7.70675V59.2102C7.70675 60.4631 8.37152 61.0639 9.29197 61.0639C10.0335 61.0639 10.5192 60.6676 10.7494 60.169H10.8005V61H11.5548V56.0909H10.8005V58.9929ZM14.6899 61.1023C15.636 61.1023 15.9556 60.5142 16.1218 60.2457H16.2112V61H16.9399V54.4545H16.1857V56.8707H16.1218C15.9556 56.6151 15.6615 56.027 14.7027 56.027C13.4627 56.027 12.6061 57.0114 12.6061 58.5582C12.6061 60.1179 13.4627 61.1023 14.6899 61.1023ZM14.7922 60.4247C13.8462 60.4247 13.3604 59.5938 13.3604 58.5455C13.3604 57.5099 13.8334 56.7045 14.7922 56.7045C15.7127 56.7045 16.1985 57.446 16.1985 58.5455C16.1985 59.6577 15.6999 60.4247 14.7922 60.4247ZM18.3261 61H19.0803V56.0909H18.3261V61ZM18.7096 55.2727C19.0036 55.2727 19.2465 55.0426 19.2465 54.7614C19.2465 54.4801 19.0036 54.25 18.7096 54.25C18.4156 54.25 18.1727 54.4801 18.1727 54.7614C18.1727 55.0426 18.4156 55.2727 18.7096 55.2727ZM22.3561 61.1023C23.6857 61.1023 24.5806 60.0923 24.5806 58.571C24.5806 57.0369 23.6857 56.027 22.3561 56.027C21.0266 56.027 20.1317 57.0369 20.1317 58.571C20.1317 60.0923 21.0266 61.1023 22.3561 61.1023ZM22.3561 60.4247C21.3462 60.4247 20.886 59.5554 20.886 58.571C20.886 57.5866 21.3462 56.7045 22.3561 56.7045C23.3661 56.7045 23.8263 57.5866 23.8263 58.571C23.8263 59.5554 23.3661 60.4247 22.3561 60.4247ZM27.9459 54.1477H27.2555L25.1461 61.9844H25.8365L27.9459 54.1477ZM29.1107 54.4545H28.2797L30.6831 61H31.5013L33.9047 54.4545H33.0738L31.1306 59.9645H31.0539L29.1107 54.4545ZM34.722 61H35.4762V56.0909H34.722V61ZM35.1055 55.2727C35.3995 55.2727 35.6424 55.0426 35.6424 54.7614C35.6424 54.4801 35.3995 54.25 35.1055 54.25C34.8115 54.25 34.5686 54.4801 34.5686 54.7614C34.5686 55.0426 34.8115 55.2727 35.1055 55.2727ZM38.6114 61.1023C39.5574 61.1023 39.877 60.5142 40.0432 60.2457H40.1327V61H40.8614V54.4545H40.1072V56.8707H40.0432C39.877 56.6151 39.583 56.027 38.6242 56.027C37.3841 56.027 36.5276 57.0114 36.5276 58.5582C36.5276 60.1179 37.3841 61.1023 38.6114 61.1023ZM38.7137 60.4247C37.7677 60.4247 37.2819 59.5938 37.2819 58.5455C37.2819 57.5099 37.7549 56.7045 38.7137 56.7045C39.6341 56.7045 40.1199 57.446 40.1199 58.5455C40.1199 59.6577 39.6214 60.4247 38.7137 60.4247ZM44.3058 61.1023C45.303 61.1023 46.0317 60.6037 46.2618 59.8622L45.5331 59.6577C45.3413 60.169 44.8971 60.4247 44.3058 60.4247C43.4205 60.4247 42.8101 59.8526 42.7749 58.8011H46.3385V58.4815C46.3385 56.6534 45.2518 56.027 44.2291 56.027C42.8996 56.027 42.0175 57.0753 42.0175 58.5838C42.0175 60.0923 42.8868 61.1023 44.3058 61.1023ZM42.7749 58.1491C42.826 57.3853 43.3662 56.7045 44.2291 56.7045C45.0473 56.7045 45.5714 57.3182 45.5714 58.1491H42.7749ZM49.3802 61.1023C50.7097 61.1023 51.6046 60.0923 51.6046 58.571C51.6046 57.0369 50.7097 56.027 49.3802 56.027C48.0506 56.027 47.1557 57.0369 47.1557 58.571C47.1557 60.0923 48.0506 61.1023 49.3802 61.1023ZM49.3802 60.4247C48.3702 60.4247 47.91 59.5554 47.91 58.571C47.91 57.5866 48.3702 56.7045 49.3802 56.7045C50.3901 56.7045 50.8503 57.5866 50.8503 58.571C50.8503 59.5554 50.3901 60.4247 49.3802 60.4247ZM6.11546 72H8.48052C10.0274 72 10.6666 71.2457 10.6666 70.2614C10.6666 69.2259 9.95069 68.6634 9.34984 68.625V68.5611C9.91234 68.4077 10.4109 68.0369 10.4109 67.1932C10.4109 66.2344 9.77171 65.4545 8.40382 65.4545H6.11546V72ZM6.90808 71.2969V69.0213H8.51887C9.37541 69.0213 9.91234 69.5966 9.91234 70.2614C9.91234 70.8366 9.51603 71.2969 8.48052 71.2969H6.90808ZM6.90808 68.331V66.1577H8.40382C9.27314 66.1577 9.65666 66.6179 9.65666 67.1932C9.65666 67.8835 9.09416 68.331 8.37825 68.331H6.90808ZM11.7667 72H12.521V68.8935C12.521 68.2287 13.0451 67.7429 13.761 67.7429C13.9624 67.7429 14.1701 67.7812 14.2213 67.794V67.027C14.135 67.0206 13.9368 67.0142 13.8249 67.0142C13.2369 67.0142 12.7255 67.3466 12.5465 67.8324H12.4954V67.0909H11.7667V72ZM16.8602 72.1023C18.1898 72.1023 19.0847 71.0923 19.0847 69.571C19.0847 68.0369 18.1898 67.027 16.8602 67.027C15.5307 67.027 14.6358 68.0369 14.6358 69.571C14.6358 71.0923 15.5307 72.1023 16.8602 72.1023ZM16.8602 71.4247C15.8503 71.4247 15.3901 70.5554 15.3901 69.571C15.3901 68.5866 15.8503 67.7045 16.8602 67.7045C17.8702 67.7045 18.3304 68.5866 18.3304 69.571C18.3304 70.5554 17.8702 71.4247 16.8602 71.4247ZM21.5806 72.1151C22.4372 72.1151 22.8846 71.6548 23.038 71.3352H23.0764V72H23.8306V68.7656C23.8306 67.206 22.6417 67.027 22.0153 67.027C21.2738 67.027 20.4301 67.2827 20.0466 68.1776L20.7625 68.4332C20.9287 68.0753 21.3218 67.6918 22.0409 67.6918C22.7344 67.6918 23.0764 68.0593 23.0764 68.6889V68.7145C23.0764 69.0788 22.7056 69.0469 21.8108 69.1619C20.8999 69.2802 19.9059 69.4815 19.9059 70.6065C19.9059 71.5653 20.6474 72.1151 21.5806 72.1151ZM21.6957 71.4375C21.0948 71.4375 20.6602 71.169 20.6602 70.6449C20.6602 70.0696 21.1843 69.8906 21.7724 69.8139C22.092 69.7756 22.9485 69.6861 23.0764 69.5327V70.223C23.0764 70.8366 22.5906 71.4375 21.6957 71.4375ZM26.961 72.1023C27.907 72.1023 28.2267 71.5142 28.3928 71.2457H28.4823V72H29.211V65.4545H28.4568V67.8707H28.3928C28.2267 67.6151 27.9326 67.027 26.9738 67.027C25.7338 67.027 24.8772 68.0114 24.8772 69.5582C24.8772 71.1179 25.7338 72.1023 26.961 72.1023ZM27.0633 71.4247C26.1173 71.4247 25.6315 70.5938 25.6315 69.5455C25.6315 68.5099 26.1045 67.7045 27.0633 67.7045C27.9838 67.7045 28.4695 68.446 28.4695 69.5455C28.4695 70.6577 27.971 71.4247 27.0633 71.4247ZM32.5915 72.1023C33.6781 72.1023 34.3941 71.4375 34.5219 70.5682H33.7676C33.627 71.1051 33.1796 71.4247 32.5915 71.4247C31.6966 71.4247 31.1213 70.6832 31.1213 69.5455C31.1213 68.4332 31.7094 67.7045 32.5915 67.7045C33.2563 67.7045 33.6526 68.1136 33.7676 68.5611H34.5219C34.3941 67.6406 33.6142 67.027 32.5787 67.027C31.2492 67.027 30.3671 68.0753 30.3671 69.571C30.3671 71.0412 31.2108 72.1023 32.5915 72.1023ZM36.9691 72.1151C37.8257 72.1151 38.2731 71.6548 38.4265 71.3352H38.4649V72H39.2191V68.7656C39.2191 67.206 38.0302 67.027 37.4038 67.027C36.6623 67.027 35.8186 67.2827 35.435 68.1776L36.1509 68.4332C36.3171 68.0753 36.7102 67.6918 37.4293 67.6918C38.1229 67.6918 38.4649 68.0593 38.4649 68.6889V68.7145C38.4649 69.0788 38.0941 69.0469 37.1992 69.1619C36.2884 69.2802 35.2944 69.4815 35.2944 70.6065C35.2944 71.5653 36.0359 72.1151 36.9691 72.1151ZM37.0842 71.4375C36.4833 71.4375 36.0487 71.169 36.0487 70.6449C36.0487 70.0696 36.5728 69.8906 37.1609 69.8139C37.4805 69.7756 38.337 69.6861 38.4649 69.5327V70.223C38.4649 70.8366 37.9791 71.4375 37.0842 71.4375ZM43.9731 68.1903C43.7366 67.4936 43.206 67.027 42.2344 67.027C41.1989 67.027 40.4319 67.6151 40.4319 68.446C40.4319 69.1236 40.8346 69.5774 41.7359 69.7884L42.554 69.9801C43.0494 70.0952 43.2827 70.3317 43.2827 70.6705C43.2827 71.0923 42.8353 71.4375 42.1322 71.4375C41.5153 71.4375 41.1286 71.1722 40.9944 70.6449L40.2785 70.8239C40.4543 71.658 41.1414 72.1023 42.145 72.1023C43.2859 72.1023 44.0626 71.479 44.0626 70.6321C44.0626 69.9482 43.6343 69.5167 42.7586 69.3026L42.0299 69.1236C41.4482 68.9798 41.1861 68.7848 41.1861 68.4077C41.1861 67.9858 41.6336 67.679 42.2344 67.679C42.8928 67.679 43.1645 68.0433 43.2955 68.3821L43.9731 68.1903ZM47.2329 67.0909H46.1846V65.9148H45.4303V67.0909H44.6889V67.7301H45.4303V70.7983C45.4303 71.6548 46.1207 72.0639 46.7599 72.0639C47.0411 72.0639 47.2201 72.0128 47.3224 71.9744L47.169 71.2969C47.1051 71.3097 47.0028 71.3352 46.8366 71.3352C46.5042 71.3352 46.1846 71.233 46.1846 70.5938V67.7301H47.2329V67.0909Z" fill="#141414" fill-opacity="0.6"/>
</svg>
