<svg width="24" height="25" viewBox="0 0 24 25" fill="none" xmlns="http://www.w3.org/2000/svg">
<path fill-rule="evenodd" clip-rule="evenodd" d="M19.23 15.9131L16.69 15.6231C16.08 15.5531 15.48 15.7631 15.05 16.1931L13.21 18.0331C10.38 16.5931 8.06001 14.2831 6.62001 11.4431L8.47001 9.59309C8.90001 9.16309 9.11001 8.56309 9.04001 7.95309L8.75001 5.43309C8.63001 4.42309 7.78001 3.66309 6.76001 3.66309H5.03001C3.90001 3.66309 2.96001 4.60309 3.03001 5.73309C3.56001 14.2731 10.39 21.0931 18.92 21.6231C20.05 21.6931 20.99 20.7531 20.99 19.6231V17.8931C21 16.8831 20.24 16.0331 19.23 15.9131Z" fill="#141414" fill-opacity="0.4"/>
</svg>
