<svg width="24" height="25" viewBox="0 0 24 25" fill="none" xmlns="http://www.w3.org/2000/svg">
<path fill-rule="evenodd" clip-rule="evenodd" d="M20 2.65308H4C2.9 2.65308 2.01 3.55308 2.01 4.65308L2 22.6531L6 18.6531H20C21.1 18.6531 22 17.7531 22 16.6531V4.65308C22 3.55308 21.1 2.65308 20 2.65308ZM7 9.65308H17C17.55 9.65308 18 10.1031 18 10.6531C18 11.2031 17.55 11.6531 17 11.6531H7C6.45 11.6531 6 11.2031 6 10.6531C6 10.1031 6.45 9.65308 7 9.65308ZM13 14.6531H7C6.45 14.6531 6 14.2031 6 13.6531C6 13.1031 6.45 12.6531 7 12.6531H13C13.55 12.6531 14 13.1031 14 13.6531C14 14.2031 13.55 14.6531 13 14.6531ZM17 8.65308H7C6.45 8.65308 6 8.20308 6 7.65308C6 7.10308 6.45 6.65308 7 6.65308H17C17.55 6.65308 18 7.10308 18 7.65308C18 8.20308 17.55 8.65308 17 8.65308Z" fill="#A1A1A1"/>
</svg>
