<svg width="56" height="75" viewBox="0 0 56 75" fill="none" xmlns="http://www.w3.org/2000/svg">
<path d="M6.65058 57.5C6.40768 56.1577 5.33382 55.3651 4.01705 55.3651C2.34234 55.3651 1.12785 56.6562 1.12785 58.7273C1.12785 60.7983 2.34234 62.0895 4.01705 62.0895C5.33382 62.0895 6.40768 61.2969 6.65058 59.9545H5.85796C5.6662 60.8622 4.88637 61.348 4.01705 61.348C2.82813 61.348 1.89489 60.4276 1.89489 58.7273C1.89489 57.027 2.82813 56.1065 4.01705 56.1065C4.88637 56.1065 5.6662 56.5923 5.85796 57.5H6.65058ZM9.72343 62.1023C11.053 62.1023 11.9479 61.0923 11.9479 59.571C11.9479 58.0369 11.053 57.027 9.72343 57.027C8.39388 57.027 7.499 58.0369 7.499 59.571C7.499 61.0923 8.39388 62.1023 9.72343 62.1023ZM9.72343 61.4247C8.71349 61.4247 8.25326 60.5554 8.25326 59.571C8.25326 58.5866 8.71349 57.7045 9.72343 57.7045C10.7334 57.7045 11.1936 58.5866 11.1936 59.571C11.1936 60.5554 10.7334 61.4247 9.72343 61.4247ZM13.7535 55.4545H12.9992V62H13.7535V55.4545ZM15.7892 55.4545H15.035V62H15.7892V55.4545ZM18.5153 62.1151C19.3718 62.1151 19.8193 61.6548 19.9727 61.3352H20.0111V62H20.7653V58.7656C20.7653 57.206 19.5764 57.027 18.95 57.027C18.2085 57.027 17.3647 57.2827 16.9812 58.1776L17.6971 58.4332C17.8633 58.0753 18.2564 57.6918 18.9755 57.6918C19.6691 57.6918 20.0111 58.0593 20.0111 58.6889V58.7145C20.0111 59.0788 19.6403 59.0469 18.7454 59.1619C17.8346 59.2802 16.8406 59.4815 16.8406 60.6065C16.8406 61.5653 17.5821 62.1151 18.5153 62.1151ZM18.6304 61.4375C18.0295 61.4375 17.5949 61.169 17.5949 60.6449C17.5949 60.0696 18.119 59.8906 18.7071 59.8139C19.0267 59.7756 19.8832 59.6861 20.0111 59.5327V60.223C20.0111 60.8366 19.5253 61.4375 18.6304 61.4375ZM22.1443 62H22.873V61.2457H22.9625C23.1286 61.5142 23.4483 62.1023 24.3943 62.1023C25.6215 62.1023 26.4781 61.1179 26.4781 59.5582C26.4781 58.0114 25.6215 57.027 24.3815 57.027C23.4227 57.027 23.1286 57.6151 22.9625 57.8707H22.8985V55.4545H22.1443V62ZM22.8858 59.5455C22.8858 58.446 23.3715 57.7045 24.292 57.7045C25.2508 57.7045 25.7238 58.5099 25.7238 59.5455C25.7238 60.5938 25.238 61.4247 24.292 61.4247C23.3843 61.4247 22.8858 60.6577 22.8858 59.5455ZM29.5262 62.1023C30.8557 62.1023 31.7506 61.0923 31.7506 59.571C31.7506 58.0369 30.8557 57.027 29.5262 57.027C28.1966 57.027 27.3017 58.0369 27.3017 59.571C27.3017 61.0923 28.1966 62.1023 29.5262 62.1023ZM29.5262 61.4247C28.5162 61.4247 28.056 60.5554 28.056 59.571C28.056 58.5866 28.5162 57.7045 29.5262 57.7045C30.5361 57.7045 30.9963 58.5866 30.9963 59.571C30.9963 60.5554 30.5361 61.4247 29.5262 61.4247ZM32.802 62H33.5562V58.8935C33.5562 58.2287 34.0804 57.7429 34.7963 57.7429C34.9976 57.7429 35.2054 57.7812 35.2565 57.794V57.027C35.1702 57.0206 34.9721 57.0142 34.8602 57.0142C34.2721 57.0142 33.7608 57.3466 33.5818 57.8324H33.5307V57.0909H32.802V62ZM37.4952 62.1151C38.3517 62.1151 38.7992 61.6548 38.9526 61.3352H38.9909V62H39.7452V58.7656C39.7452 57.206 38.5563 57.027 37.9299 57.027C37.1884 57.027 36.3446 57.2827 35.9611 58.1776L36.677 58.4332C36.8432 58.0753 37.2363 57.6918 37.9554 57.6918C38.649 57.6918 38.9909 58.0593 38.9909 58.6889V58.7145C38.9909 59.0788 38.6202 59.0469 37.7253 59.1619C36.8144 59.2802 35.8205 59.4815 35.8205 60.6065C35.8205 61.5653 36.562 62.1151 37.4952 62.1151ZM37.6103 61.4375C37.0094 61.4375 36.5747 61.169 36.5747 60.6449C36.5747 60.0696 37.0989 59.8906 37.687 59.8139C38.0066 59.7756 38.8631 59.6861 38.9909 59.5327V60.223C38.9909 60.8366 38.5051 61.4375 37.6103 61.4375ZM43.1568 57.0909H42.1085V55.9148H41.3543V57.0909H40.6128V57.7301H41.3543V60.7983C41.3543 61.6548 42.0446 62.0639 42.6838 62.0639C42.9651 62.0639 43.144 62.0128 43.2463 61.9744L43.0929 61.2969C43.029 61.3097 42.9267 61.3352 42.7605 61.3352C42.4281 61.3352 42.1085 61.233 42.1085 60.5938V57.7301H43.1568V57.0909ZM44.1914 62H44.9457V57.0909H44.1914V62ZM44.5749 56.2727C44.869 56.2727 45.1119 56.0426 45.1119 55.7614C45.1119 55.4801 44.869 55.25 44.5749 55.25C44.2809 55.25 44.038 55.4801 44.038 55.7614C44.038 56.0426 44.2809 56.2727 44.5749 56.2727ZM50.2414 57.0909H49.4232L48.0681 61.0028H48.0169L46.6618 57.0909H45.8436L47.659 62H48.426L50.2414 57.0909ZM53.0194 62.1023C54.0165 62.1023 54.7452 61.6037 54.9753 60.8622L54.2467 60.6577C54.0549 61.169 53.6106 61.4247 53.0194 61.4247C52.1341 61.4247 51.5236 60.8526 51.4885 59.8011H55.052V59.4815C55.052 57.6534 53.9654 57.027 52.9427 57.027C51.6131 57.027 50.731 58.0753 50.731 59.5838C50.731 61.0923 51.6003 62.1023 53.0194 62.1023ZM51.4885 59.1491C51.5396 58.3853 52.0797 57.7045 52.9427 57.7045C53.7609 57.7045 54.285 58.3182 54.285 59.1491H51.4885ZM9.31729 73C11.3116 73 12.4366 71.7599 12.4366 69.7145C12.4366 67.6818 11.3116 66.4545 9.40677 66.4545H7.2974V73H9.31729ZM8.09001 72.2969V67.1577H9.35564C10.8897 67.1577 11.6696 68.1293 11.6696 69.7145C11.6696 71.3125 10.8897 72.2969 9.26615 72.2969H8.09001ZM15.5582 73.1023C16.8877 73.1023 17.7826 72.0923 17.7826 70.571C17.7826 69.0369 16.8877 68.027 15.5582 68.027C14.2286 68.027 13.3338 69.0369 13.3338 70.571C13.3338 72.0923 14.2286 73.1023 15.5582 73.1023ZM15.5582 72.4247C14.5483 72.4247 14.088 71.5554 14.088 70.571C14.088 69.5866 14.5483 68.7045 15.5582 68.7045C16.5681 68.7045 17.0284 69.5866 17.0284 70.571C17.0284 71.5554 16.5681 72.4247 15.5582 72.4247ZM20.8283 73.1023C21.915 73.1023 22.6309 72.4375 22.7587 71.5682H22.0044C21.8638 72.1051 21.4164 72.4247 20.8283 72.4247C19.9334 72.4247 19.3581 71.6832 19.3581 70.5455C19.3581 69.4332 19.9462 68.7045 20.8283 68.7045C21.4931 68.7045 21.8894 69.1136 22.0044 69.5611H22.7587C22.6309 68.6406 21.851 68.027 20.8155 68.027C19.486 68.027 18.6039 69.0753 18.6039 70.571C18.6039 72.0412 19.4476 73.1023 20.8283 73.1023ZM26.8551 70.9929C26.8551 71.9134 26.152 72.3352 25.5895 72.3352C24.963 72.3352 24.5156 71.875 24.5156 71.1591V68.0909H23.7613V71.2102C23.7613 72.4631 24.4261 73.0639 25.3466 73.0639C26.088 73.0639 26.5738 72.6676 26.804 72.169H26.8551V73H27.6093V68.0909H26.8551V70.9929ZM28.8908 73H29.6451V69.9318C29.6451 69.2127 30.1692 68.7045 30.7573 68.7045C31.3294 68.7045 31.7289 69.0785 31.7289 69.6378V73H32.4959V69.804C32.4959 69.1712 32.8923 68.7045 33.5826 68.7045C34.1195 68.7045 34.5798 68.989 34.5798 69.7145V73H35.334V69.7145C35.334 68.5607 34.714 68.027 33.8383 68.027C33.1351 68.027 32.6206 68.3498 32.3681 68.858H32.317C32.0741 68.3338 31.6458 68.027 31.0002 68.027C30.361 68.027 29.888 68.3338 29.6834 68.858H29.6195V68.0909H28.8908V73ZM38.6713 73.1023C39.6685 73.1023 40.3972 72.6037 40.6273 71.8622L39.8986 71.6577C39.7068 72.169 39.2626 72.4247 38.6713 72.4247C37.786 72.4247 37.1756 71.8526 37.1404 70.8011H40.704V70.4815C40.704 68.6534 39.6174 68.027 38.5946 68.027C37.2651 68.027 36.383 69.0753 36.383 70.5838C36.383 72.0923 37.2523 73.1023 38.6713 73.1023ZM37.1404 70.1491C37.1916 69.3853 37.7317 68.7045 38.5946 68.7045C39.4128 68.7045 39.937 69.3182 39.937 70.1491H37.1404ZM42.5056 70.0469C42.5056 69.1903 43.0362 68.7045 43.7585 68.7045C44.4584 68.7045 44.8835 69.1616 44.8835 69.9318V73H45.6377V69.8807C45.6377 68.6278 44.9698 68.027 43.9758 68.027C43.2343 68.027 42.7741 68.3594 42.544 68.858H42.4801V68.0909H41.7514V73H42.5056V70.0469ZM49.051 68.0909H48.0027V66.9148H47.2484V68.0909H46.5069V68.7301H47.2484V71.7983C47.2484 72.6548 47.9388 73.0639 48.578 73.0639C48.8592 73.0639 49.0382 73.0128 49.1405 72.9744L48.987 72.2969C48.9231 72.3097 48.8209 72.3352 48.6547 72.3352C48.3223 72.3352 48.0027 72.233 48.0027 71.5938V68.7301H49.051V68.0909Z" fill="#141414" fill-opacity="0.6"/>
<rect x="4" width="48" height="48" rx="24" fill="#C0E7E7"/>
<path d="M32.167 25.1667V27.6667C32.167 31 30.8337 32.3333 27.5003 32.3333H24.3337C21.0003 32.3333 19.667 31 19.667 27.6667V24.5C19.667 21.1667 21.0003 19.8333 24.3337 19.8333H26.8337" stroke="#429292" stroke-width="1.25" stroke-linecap="round" stroke-linejoin="round"/>
<path d="M32.1668 25.1667H29.5002C27.5002 25.1667 26.8335 24.5 26.8335 22.5V19.8333L32.1668 25.1667Z" stroke="#429292" stroke-width="1.25" stroke-linecap="round" stroke-linejoin="round"/>
<path d="M27.667 15.6667H31.0003" stroke="#429292" stroke-width="1.25" stroke-linecap="round" stroke-linejoin="round"/>
<path d="M23.833 18.1667C23.833 16.7833 24.9497 15.6667 26.333 15.6667H28.5163" stroke="#429292" stroke-width="1.25" stroke-linecap="round" stroke-linejoin="round"/>
<path d="M36.3334 20.6667V25.825C36.3334 27.1167 35.2834 28.1667 33.9917 28.1667" stroke="#429292" stroke-width="1.25" stroke-linecap="round" stroke-linejoin="round"/>
<path d="M36.333 20.6667H33.833C31.958 20.6667 31.333 20.0417 31.333 18.1667V15.6667L36.333 20.6667Z" stroke="#429292" stroke-width="1.25" stroke-linecap="round" stroke-linejoin="round"/>
</svg>
