<svg width="20" height="20" viewBox="0 0 20 20" fill="none" xmlns="http://www.w3.org/2000/svg">
<path d="M14.167 11.1667V13.6667C14.167 17 12.8337 18.3333 9.50033 18.3333H6.33366C3.00033 18.3333 1.66699 17 1.66699 13.6667V10.5C1.66699 7.16666 3.00033 5.83333 6.33366 5.83333H8.83366" stroke="#429292" stroke-width="1.25" stroke-linecap="round" stroke-linejoin="round"/>
<path d="M14.1668 11.1667H11.5002C9.50016 11.1667 8.8335 10.5 8.8335 8.5V5.83333L14.1668 11.1667Z" stroke="#429292" stroke-width="1.25" stroke-linecap="round" stroke-linejoin="round"/>
<path d="M9.66699 1.66667H13.0003" stroke="#429292" stroke-width="1.25" stroke-linecap="round" stroke-linejoin="round"/>
<path d="M5.83301 4.16667C5.83301 2.78334 6.94967 1.66667 8.33301 1.66667H10.5163" stroke="#429292" stroke-width="1.25" stroke-linecap="round" stroke-linejoin="round"/>
<path d="M18.3334 6.66667V11.825C18.3334 13.1167 17.2834 14.1667 15.9917 14.1667" stroke="#429292" stroke-width="1.25" stroke-linecap="round" stroke-linejoin="round"/>
<path d="M18.333 6.66667H15.833C13.958 6.66667 13.333 6.04167 13.333 4.16667V1.66667L18.333 6.66667Z" stroke="#429292" stroke-width="1.25" stroke-linecap="round" stroke-linejoin="round"/>
</svg>
