<svg width="20" height="20" viewBox="0 0 20 20" fill="none" xmlns="http://www.w3.org/2000/svg">
<path d="M17.5 5.83333V14.1667C17.5 16.6667 16.25 18.3333 13.3333 18.3333H6.66667C3.75 18.3333 2.5 16.6667 2.5 14.1667V5.83333C2.5 3.33333 3.75 1.66666 6.66667 1.66666H13.3333C16.25 1.66666 17.5 3.33333 17.5 5.83333Z" stroke="#62229D" stroke-width="1.25" stroke-miterlimit="10" stroke-linecap="round" stroke-linejoin="round"/>
<path d="M12.0835 3.75V5.41667C12.0835 6.33333 12.8335 7.08333 13.7502 7.08333H15.4168" stroke="#62229D" stroke-width="1.25" stroke-miterlimit="10" stroke-linecap="round" stroke-linejoin="round"/>
<path d="M6.23361 12.9083C5.95861 12.05 6.28359 10.9917 7.17526 10.7C7.65026 10.55 8.23359 10.675 8.55859 11.1333C8.86693 10.6583 9.47526 10.55 9.94193 10.7C10.8419 10.9917 11.1586 12.05 10.8919 12.9083C10.4669 14.2666 8.97526 14.975 8.55859 14.975C8.15026 14.9666 6.67528 14.275 6.23361 12.9083Z" stroke="#62229D" stroke-width="1.25" stroke-linecap="round" stroke-linejoin="round"/>
</svg>
