<svg width="24" height="24" viewBox="0 0 24 24" fill="none" xmlns="http://www.w3.org/2000/svg">
<path fill-rule="evenodd" clip-rule="evenodd" d="M19 8C19 10.21 17.21 12 15 12C14.53 12 14.09 11.9 13.67 11.76C14.5 10.73 15 9.42 15 8C15 6.58 14.5 5.27 13.67 4.24C14.09 4.1 14.53 4 15 4C17.21 4 19 5.79 19 8ZM1 17C1 14.34 6.33 13 9 13C11.67 13 17 14.34 17 17V19C17 19.55 16.55 20 16 20H2C1.45 20 1 19.55 1 19V17ZM13 8C13 10.2091 11.2091 12 9 12C6.79086 12 5 10.2091 5 8C5 5.79086 6.79086 4 9 4C11.2091 4 13 5.79086 13 8ZM19 17C19 15.32 18.04 14.06 16.67 13.13C19.43 13.53 23 14.82 23 17V19C23 19.55 22.55 20 22 20H19V17Z" fill="#A1A1A1"/>
</svg>
