<svg width="48" height="74" viewBox="0 0 48 74" fill="none" xmlns="http://www.w3.org/2000/svg">
<rect width="48" height="48" rx="24" fill="#D8EAF5"/>
<path d="M25.05 17L18.2083 24.2417C17.95 24.5167 17.7 25.0583 17.65 25.4333L17.3416 28.1333C17.2333 29.1083 17.9333 29.775 18.9 29.6083L21.5833 29.15C21.9583 29.0833 22.4833 28.8083 22.7416 28.525L29.5833 21.2833C30.7666 20.0333 31.3 18.6083 29.4583 16.8667C27.625 15.1417 26.2333 15.75 25.05 17Z" stroke="#1A6C9D" stroke-width="1.25" stroke-miterlimit="10" stroke-linecap="round" stroke-linejoin="round"/>
<path d="M23.9082 18.2083C24.2665 20.5083 26.1332 22.2667 28.4499 22.5" stroke="#1A6C9D" stroke-width="1.25" stroke-miterlimit="10" stroke-linecap="round" stroke-linejoin="round"/>
<path d="M16.5 32.3333H31.5" stroke="#1A6C9D" stroke-width="1.25" stroke-miterlimit="10" stroke-linecap="round" stroke-linejoin="round"/>
<path d="M3.32269 61H4.11531V58.0724H7.60536V61H8.39798V54.4545H7.60536V57.3693H4.11531V54.4545H3.32269V61ZM11.2271 61.1151C12.0837 61.1151 12.5311 60.6548 12.6845 60.3352H12.7229V61H13.4771V57.7656C13.4771 56.206 12.2882 56.027 11.6618 56.027C10.9203 56.027 10.0766 56.2827 9.69304 57.1776L10.4089 57.4332C10.5751 57.0753 10.9683 56.6918 11.6874 56.6918C12.3809 56.6918 12.7229 57.0593 12.7229 57.6889V57.7145C12.7229 58.0788 12.3521 58.0469 11.4572 58.1619C10.5464 58.2802 9.55242 58.4815 9.55242 59.6065C9.55242 60.5653 10.2939 61.1151 11.2271 61.1151ZM11.3422 60.4375C10.7413 60.4375 10.3067 60.169 10.3067 59.6449C10.3067 59.0696 10.8308 58.8906 11.4189 58.8139C11.7385 58.7756 12.595 58.6861 12.7229 58.5327V59.223C12.7229 59.8366 12.2371 60.4375 11.3422 60.4375ZM15.5081 58.0469C15.5081 57.1903 16.0386 56.7045 16.7609 56.7045C17.4608 56.7045 17.8859 57.1616 17.8859 57.9318V61H18.6402V57.8807C18.6402 56.6278 17.9722 56.027 16.9783 56.027C16.2368 56.027 15.7765 56.3594 15.5464 56.858H15.4825V56.0909H14.7538V61H15.5081V58.0469ZM21.7722 61.1023C22.7182 61.1023 23.0378 60.5142 23.204 60.2457H23.2935V61H24.0222V54.4545H23.2679V56.8707H23.204C23.0378 56.6151 22.7438 56.027 21.7849 56.027C20.5449 56.027 19.6884 57.0114 19.6884 58.5582C19.6884 60.1179 20.5449 61.1023 21.7722 61.1023ZM21.8744 60.4247C20.9284 60.4247 20.4426 59.5938 20.4426 58.5455C20.4426 57.5099 20.9156 56.7045 21.8744 56.7045C22.7949 56.7045 23.2807 57.446 23.2807 58.5455C23.2807 59.6577 22.7821 60.4247 21.8744 60.4247ZM26.5205 61H27.262L28.3359 57.2287H28.4126L29.4864 61H30.2279L31.7237 56.0909H30.931L29.87 59.8366H29.8188L28.7833 56.0909H27.9779L26.9296 59.8494H26.8785L25.8174 56.0909H25.0248L26.5205 61ZM32.6208 61H33.3751V57.8935C33.3751 57.2287 33.8992 56.7429 34.6151 56.7429C34.8165 56.7429 35.0242 56.7812 35.0754 56.794V56.027C34.9891 56.0206 34.7909 56.0142 34.679 56.0142C34.091 56.0142 33.5796 56.3466 33.4006 56.8324H33.3495V56.0909H32.6208V61ZM35.8694 61H36.6237V56.0909H35.8694V61ZM36.253 55.2727C36.547 55.2727 36.7899 55.0426 36.7899 54.7614C36.7899 54.4801 36.547 54.25 36.253 54.25C35.9589 54.25 35.716 54.4801 35.716 54.7614C35.716 55.0426 35.9589 55.2727 36.253 55.2727ZM40.0401 56.0909H38.9918V54.9148H38.2376V56.0909H37.4961V56.7301H38.2376V59.7983C38.2376 60.6548 38.9279 61.0639 39.5671 61.0639C39.8484 61.0639 40.0273 61.0128 40.1296 60.9744L39.9762 60.2969C39.9123 60.3097 39.81 60.3352 39.6438 60.3352C39.3114 60.3352 38.9918 60.233 38.9918 59.5938V56.7301H40.0401V56.0909ZM43.0802 61.1023C44.0774 61.1023 44.8061 60.6037 45.0362 59.8622L44.3075 59.6577C44.1157 60.169 43.6715 60.4247 43.0802 60.4247C42.1949 60.4247 41.5845 59.8526 41.5493 58.8011H45.1129V58.4815C45.1129 56.6534 44.0262 56.027 43.0035 56.027C41.674 56.027 40.7919 57.0753 40.7919 58.5838C40.7919 60.0923 41.6612 61.1023 43.0802 61.1023ZM41.5493 58.1491C41.6005 57.3853 42.1406 56.7045 43.0035 56.7045C43.8217 56.7045 44.3458 57.3182 44.3458 58.1491H41.5493ZM5.87093 65.4545V72H6.61241V67.027H6.67633L8.72179 72H9.43769L11.4831 67.027H11.5471V72H12.2885V65.4545H11.3425L9.11809 70.8878H9.04139L6.81696 65.4545H5.87093ZM15.7337 72.1023C16.7309 72.1023 17.4596 71.6037 17.6897 70.8622L16.961 70.6577C16.7692 71.169 16.325 71.4247 15.7337 71.4247C14.8484 71.4247 14.238 70.8526 14.2028 69.8011H17.7664V69.4815C17.7664 67.6534 16.6798 67.027 15.657 67.027C14.3275 67.027 13.4454 68.0753 13.4454 69.5838C13.4454 71.0923 14.3147 72.1023 15.7337 72.1023ZM14.2028 69.1491C14.254 68.3853 14.7941 67.7045 15.657 67.7045C16.4752 67.7045 16.9994 68.3182 16.9994 69.1491H14.2028ZM22.291 68.1903C22.0545 67.4936 21.524 67.027 20.5524 67.027C19.5169 67.027 18.7499 67.6151 18.7499 68.446C18.7499 69.1236 19.1526 69.5774 20.0538 69.7884L20.872 69.9801C21.3674 70.0952 21.6007 70.3317 21.6007 70.6705C21.6007 71.0923 21.1533 71.4375 20.4501 71.4375C19.8333 71.4375 19.4466 71.1722 19.3124 70.6449L18.5964 70.8239C18.7722 71.658 19.4594 72.1023 20.4629 72.1023C21.6039 72.1023 22.3805 71.479 22.3805 70.6321C22.3805 69.9482 21.9523 69.5167 21.0766 69.3026L20.3479 69.1236C19.7662 68.9798 19.5041 68.7848 19.5041 68.4077C19.5041 67.9858 19.9516 67.679 20.5524 67.679C21.2108 67.679 21.4825 68.0433 21.6135 68.3821L22.291 68.1903ZM26.8932 68.1903C26.6567 67.4936 26.1262 67.027 25.1546 67.027C24.1191 67.027 23.352 67.6151 23.352 68.446C23.352 69.1236 23.7547 69.5774 24.656 69.7884L25.4742 69.9801C25.9695 70.0952 26.2029 70.3317 26.2029 70.6705C26.2029 71.0923 25.7554 71.4375 25.0523 71.4375C24.4355 71.4375 24.0487 71.1722 23.9145 70.6449L23.1986 70.8239C23.3744 71.658 24.0615 72.1023 25.0651 72.1023C26.2061 72.1023 26.9827 71.479 26.9827 70.6321C26.9827 69.9482 26.5544 69.5167 25.6787 69.3026L24.95 69.1236C24.3683 68.9798 24.1063 68.7848 24.1063 68.4077C24.1063 67.9858 24.5537 67.679 25.1546 67.679C25.8129 67.679 26.0846 68.0433 26.2156 68.3821L26.8932 68.1903ZM29.4627 72.1151C30.3192 72.1151 30.7667 71.6548 30.9201 71.3352H30.9584V72H31.7127V68.7656C31.7127 67.206 30.5238 67.027 29.8973 67.027C29.1559 67.027 28.3121 67.2827 27.9286 68.1776L28.6445 68.4332C28.8107 68.0753 29.2038 67.6918 29.9229 67.6918C30.6164 67.6918 30.9584 68.0593 30.9584 68.6889V68.7145C30.9584 69.0788 30.5877 69.0469 29.6928 69.1619C28.7819 69.2802 27.788 69.4815 27.788 70.6065C27.788 71.5653 28.5294 72.1151 29.4627 72.1151ZM29.5777 71.4375C28.9769 71.4375 28.5422 71.169 28.5422 70.6449C28.5422 70.0696 29.0664 69.8906 29.6544 69.8139C29.974 69.7756 30.8306 69.6861 30.9584 69.5327V70.223C30.9584 70.8366 30.4726 71.4375 29.5777 71.4375ZM34.9709 73.9432C36.147 73.9432 37.0931 73.4062 37.0931 72.1406V67.0909H36.3644V67.8707H36.2877C36.1215 67.6151 35.8146 67.027 34.8558 67.027C33.6158 67.027 32.7592 68.0114 32.7592 69.5199C32.7592 71.054 33.6541 71.9233 34.8431 71.9233C35.8019 71.9233 36.1087 71.3608 36.2749 71.0923H36.3388V72.0895C36.3388 72.9077 35.7635 73.2784 34.9709 73.2784C34.0792 73.2784 33.766 72.8086 33.5646 72.5369L32.9638 72.9588C33.2706 73.4734 33.8747 73.9432 34.9709 73.9432ZM34.9453 71.2457C33.9993 71.2457 33.5135 70.5298 33.5135 69.5071C33.5135 68.5099 33.9865 67.7045 34.9453 67.7045C35.8658 67.7045 36.3516 68.446 36.3516 69.5071C36.3516 70.5938 35.853 71.2457 34.9453 71.2457ZM40.432 72.1023C41.4291 72.1023 42.1578 71.6037 42.3879 70.8622L41.6593 70.6577C41.4675 71.169 41.0232 71.4247 40.432 71.4247C39.5467 71.4247 38.9362 70.8526 38.9011 69.8011H42.4646V69.4815C42.4646 67.6534 41.378 67.027 40.3553 67.027C39.0257 67.027 38.1436 68.0753 38.1436 69.5838C38.1436 71.0923 39.0129 72.1023 40.432 72.1023ZM38.9011 69.1491C38.9522 68.3853 39.4923 67.7045 40.3553 67.7045C41.1735 67.7045 41.6976 68.3182 41.6976 69.1491H38.9011Z" fill="#141414" fill-opacity="0.6"/>
</svg>
