<svg width="20" height="20" viewBox="0 0 20 20" fill="none" xmlns="http://www.w3.org/2000/svg">
<path d="M6.25016 3.33333H13.7502C14.2668 3.33333 14.7252 3.35 15.1335 3.40833C17.3252 3.65 17.9168 4.68333 17.9168 7.49999V12.5C17.9168 15.3167 17.3252 16.35 15.1335 16.5917C14.7252 16.65 14.2668 16.6667 13.7502 16.6667H6.25016C5.7335 16.6667 5.27516 16.65 4.86683 16.5917C2.67516 16.35 2.0835 15.3167 2.0835 12.5V7.49999C2.0835 4.68333 2.67516 3.65 4.86683 3.40833C5.27516 3.35 5.7335 3.33333 6.25016 3.33333Z" stroke="#ADAF23" stroke-width="1.25" stroke-linecap="round" stroke-linejoin="round"/>
<path d="M11.25 8.33333H14.1667" stroke="#ADAF23" stroke-width="1.25" stroke-linecap="round" stroke-linejoin="round"/>
<path d="M5.8335 12.9167H5.85016H14.1668" stroke="#ADAF23" stroke-width="1.25" stroke-linecap="round" stroke-linejoin="round"/>
<path d="M8.41209 8.33334H8.41957" stroke="#ADAF23" stroke-width="1.66667" stroke-linecap="round" stroke-linejoin="round"/>
<path d="M5.91209 8.33334H5.91957" stroke="#ADAF23" stroke-width="1.66667" stroke-linecap="round" stroke-linejoin="round"/>
</svg>
