<svg width="16" height="16" viewBox="0 0 16 16" fill="none" xmlns="http://www.w3.org/2000/svg">
<path fill-rule="evenodd" clip-rule="evenodd" d="M13.1283 3.43709C13.384 3.01087 13.9368 2.87266 14.363 3.12839C14.7565 3.36445 14.9045 3.85367 14.7238 4.26277L14.6717 4.36318L9.87174 12.3632C9.59058 12.8318 8.96827 12.9373 8.54993 12.6127L8.4636 12.5365L7.99624 12.0692L13.1283 3.43709ZM9.12826 3.43709C9.38399 3.01087 9.93682 2.87266 10.363 3.12839C10.7565 3.36445 10.9045 3.85367 10.7238 4.26277L10.6717 4.36318L5.87174 12.3632C5.59058 12.8318 4.96827 12.9373 4.54993 12.6127L4.4636 12.5365L1.2636 9.33653C0.912132 8.98506 0.912132 8.41521 1.2636 8.06374C1.58579 7.74156 2.09147 7.71471 2.44423 7.98319L2.5364 8.06374L4.921 10.4481L9.12826 3.43709Z" fill="#3399FF"/>
</svg>
