<svg width="24" height="24" viewBox="0 0 24 24" fill="none" xmlns="http://www.w3.org/2000/svg">
<path fill-rule="evenodd" clip-rule="evenodd" d="M12 15C13.66 15 15 13.66 15 12V6C15 4.34 13.66 3 12 3C10.34 3 8.99999 4.34 8.99999 6V12C8.99999 13.66 10.34 15 12 15ZM17.91 12C17.42 12 17.01 12.36 16.93 12.85C16.52 15.2 14.47 17 12 17C9.52999 17 7.47999 15.2 7.06999 12.85C6.98999 12.36 6.57999 12 6.08999 12C5.47999 12 4.99999 12.54 5.08999 13.14C5.57999 16.14 7.97999 18.49 11 18.92V21C11 21.55 11.45 22 12 22C12.55 22 13 21.55 13 21V18.92C16.02 18.49 18.42 16.14 18.91 13.14C19.01 12.54 18.52 12 17.91 12Z" fill="#141414" fill-opacity="0.4"/>
</svg>
