<svg width="20" height="20" viewBox="0 0 20 20" fill="none" xmlns="http://www.w3.org/2000/svg">
<path d="M9.99984 12.9167C11.8415 12.9167 13.3332 11.425 13.3332 9.58334V5.00001C13.3332 3.15834 11.8415 1.66667 9.99984 1.66667C8.15817 1.66667 6.6665 3.15834 6.6665 5.00001V9.58334C6.6665 11.425 8.15817 12.9167 9.99984 12.9167Z" stroke="#CF2DA8" stroke-width="1.25" stroke-linecap="round" stroke-linejoin="round"/>
<path d="M3.625 8.04166V9.45832C3.625 12.975 6.48333 15.8333 10 15.8333C13.5167 15.8333 16.375 12.975 16.375 9.45832V8.04166" stroke="#CF2DA8" stroke-width="1.25" stroke-linecap="round" stroke-linejoin="round"/>
<path d="M8.8418 5.35833C9.5918 5.08333 10.4085 5.08333 11.1585 5.35833" stroke="#CF2DA8" stroke-width="1.25" stroke-linecap="round" stroke-linejoin="round"/>
<path d="M9.3335 7.12501C9.77516 7.00834 10.2335 7.00834 10.6752 7.12501" stroke="#CF2DA8" stroke-width="1.25" stroke-linecap="round" stroke-linejoin="round"/>
<path d="M10 15.8333V18.3333" stroke="#CF2DA8" stroke-width="1.25" stroke-linecap="round" stroke-linejoin="round"/>
</svg>
