<svg width="24" height="24" viewBox="0 0 24 24" fill="none" xmlns="http://www.w3.org/2000/svg">
<path fill-rule="evenodd" clip-rule="evenodd" d="M21.3465 4.19532L22.1472 3.35548C22.5867 2.88673 22.655 2.20313 22.1961 1.76368L21.8933 1.45118C21.5125 1.05079 20.8289 1.15821 20.3797 1.5879L19.5496 2.39844L21.3465 4.19532ZM10.5457 13.6973L12.7039 12.8379L20.6629 4.87891L18.8562 3.0918L10.907 11.0508L10.0281 13.1602C9.89138 13.502 10.2527 13.8145 10.5457 13.6973ZM7.8 3.00001H16L14 5.00001H6C5.44772 5.00001 5 5.44772 5 6.00001V18C5 18.5523 5.44772 19 6 19H18C18.5523 19 19 18.5523 19 18V10L21 8.00001V16.2C21 17.8802 21 18.7202 20.673 19.362C20.3854 19.9265 19.9265 20.3854 19.362 20.673C18.7202 21 17.8802 21 16.2 21H7.8C6.11984 21 5.27976 21 4.63803 20.673C4.07354 20.3854 3.6146 19.9265 3.32698 19.362C3 18.7202 3 17.8802 3 16.2V7.80001C3 6.11985 3 5.27977 3.32698 4.63804C3.6146 4.07355 4.07354 3.61461 4.63803 3.32699C5.27976 3.00001 6.11984 3.00001 7.8 3.00001Z" fill="white"/>
</svg>
