<svg width="20" height="20" viewBox="0 0 20 20" fill="none" xmlns="http://www.w3.org/2000/svg">
<path d="M10.0002 11.6667C10.9206 11.6667 11.6668 10.9205 11.6668 10C11.6668 9.07953 10.9206 8.33334 10.0002 8.33334C9.07969 8.33334 8.3335 9.07953 8.3335 10C8.3335 10.9205 9.07969 11.6667 10.0002 11.6667Z" stroke="#CB2929" stroke-width="1.25" stroke-linecap="round" stroke-linejoin="round"/>
<path d="M16.6665 15C17.7165 13.6083 18.3332 11.875 18.3332 10C18.3332 8.125 17.7165 6.39167 16.6665 5" stroke="#CB2929" stroke-width="1.25" stroke-linecap="round" stroke-linejoin="round"/>
<path d="M3.33317 5C2.28317 6.39167 1.6665 8.125 1.6665 10C1.6665 11.875 2.28317 13.6083 3.33317 15" stroke="#CB2929" stroke-width="1.25" stroke-linecap="round" stroke-linejoin="round"/>
<path d="M14 13C14.625 12.1667 15 11.125 15 10C15 8.875 14.625 7.83333 14 6.99999" stroke="#CB2929" stroke-width="1.25" stroke-linecap="round" stroke-linejoin="round"/>
<path d="M6.00001 6.99999C5.37501 7.83333 5 8.875 5 10C5 11.125 5.37501 12.1667 6.00001 13" stroke="#CB2929" stroke-width="1.25" stroke-linecap="round" stroke-linejoin="round"/>
</svg>
