<svg width="16" height="16" viewBox="0 0 16 16" fill="none" xmlns="http://www.w3.org/2000/svg">
<path fill-rule="evenodd" clip-rule="evenodd" d="M11.2656 10.0285H10.6168L10.3869 9.80687C11.3723 8.65786 11.8815 7.09028 11.6023 5.42421C11.2163 3.1426 9.3111 1.3206 7.01173 1.04155C3.53804 0.614774 0.614548 3.53655 1.04157 7.00821C1.32078 9.30623 3.14386 11.2103 5.42681 11.5961C7.09385 11.8751 8.66235 11.3662 9.81204 10.3814L10.0338 10.6112V11.2596L13.5239 14.7476C13.8606 15.0841 14.4108 15.0841 14.7475 14.7476C15.0842 14.4111 15.0842 13.8612 14.7475 13.5247L11.2656 10.0285ZM6.33834 10.0285C4.29354 10.0285 2.64292 8.37882 2.64292 6.33521C2.64292 4.29161 4.29354 2.64196 6.33834 2.64196C8.38314 2.64196 10.0338 4.29161 10.0338 6.33521C10.0338 8.37882 8.38314 10.0285 6.33834 10.0285Z" fill="#141414" fill-opacity="0.4"/>
</svg>
