<svg width="56" height="63" viewBox="0 0 56 63" fill="none" xmlns="http://www.w3.org/2000/svg">
<rect x="4" width="48" height="48" rx="24" fill="#D8F5E0"/>
<path d="M23.367 15.6667H32.6253C35.592 15.6667 36.3337 16.4083 36.3337 19.3667V24.6417C36.3337 27.6083 35.592 28.3417 32.6337 28.3417H23.367C20.4087 28.35 19.667 27.6083 19.667 24.65V19.3667C19.667 16.4083 20.4087 15.6667 23.367 15.6667Z" stroke="#23913D" stroke-width="1.25" stroke-linecap="round" stroke-linejoin="round"/>
<path d="M28 28.35V32.3333" stroke="#23913D" stroke-width="1.25" stroke-linecap="round" stroke-linejoin="round"/>
<path d="M19.667 24.8333H36.3337" stroke="#23913D" stroke-width="1.25" stroke-linecap="round" stroke-linejoin="round"/>
<path d="M24.25 32.3333H31.75" stroke="#23913D" stroke-width="1.25" stroke-linecap="round" stroke-linejoin="round"/>
<path d="M4.5203 56.0909H5.28735C5.25219 55.1033 4.34133 54.3651 3.0757 54.3651C1.82286 54.3651 0.838485 55.0938 0.838485 56.1932C0.838485 57.0753 1.47769 57.5994 2.50042 57.8935L3.30581 58.1236C3.99616 58.3153 4.60979 58.5582 4.60979 59.2102C4.60979 59.9261 3.91945 60.3991 3.01178 60.3991C2.23195 60.3991 1.54161 60.054 1.47769 59.3125H0.659507C0.736212 60.3864 1.60553 61.1151 3.01178 61.1151C4.5203 61.1151 5.37684 60.2841 5.37684 59.223C5.37684 57.9957 4.21348 57.5994 3.53593 57.4205L2.87116 57.2415C2.38536 57.1136 1.60553 56.858 1.60553 56.1548C1.60553 55.5284 2.18081 55.0682 3.05013 55.0682C3.84275 55.0682 4.4436 55.4453 4.5203 56.0909ZM7.232 58.0469C7.232 57.1903 7.77852 56.7045 8.5232 56.7045C9.23271 56.7045 9.66098 57.152 9.66098 57.9318V61H10.4152V57.8807C10.4152 56.6183 9.74408 56.027 8.74053 56.027C7.96709 56.027 7.52604 56.3498 7.29592 56.858H7.232V54.4545H6.47774V61H7.232V58.0469ZM13.1397 61.1151C13.9963 61.1151 14.4437 60.6548 14.5971 60.3352H14.6355V61H15.3897V57.7656C15.3897 56.206 14.2008 56.027 13.5744 56.027C12.8329 56.027 11.9892 56.2827 11.6056 57.1776L12.3215 57.4332C12.4877 57.0753 12.8809 56.6918 13.6 56.6918C14.2935 56.6918 14.6355 57.0593 14.6355 57.6889V57.7145C14.6355 58.0788 14.2647 58.0469 13.3698 58.1619C12.459 58.2802 11.465 58.4815 11.465 59.6065C11.465 60.5653 12.2065 61.1151 13.1397 61.1151ZM13.2548 60.4375C12.6539 60.4375 12.2193 60.169 12.2193 59.6449C12.2193 59.0696 12.7434 58.8906 13.3315 58.8139C13.6511 58.7756 14.5076 58.6861 14.6355 58.5327V59.223C14.6355 59.8366 14.1497 60.4375 13.2548 60.4375ZM16.6664 61H17.4207V57.8935C17.4207 57.2287 17.9448 56.7429 18.6607 56.7429C18.8621 56.7429 19.0698 56.7812 19.121 56.794V56.027C19.0347 56.0206 18.8365 56.0142 18.7247 56.0142C18.1366 56.0142 17.6252 56.3466 17.4462 56.8324H17.3951V56.0909H16.6664V61ZM21.8239 61.1023C22.821 61.1023 23.5497 60.6037 23.7798 59.8622L23.0511 59.6577C22.8594 60.169 22.4151 60.4247 21.8239 60.4247C20.9386 60.4247 20.3281 59.8526 20.293 58.8011H23.8565V58.4815C23.8565 56.6534 22.7699 56.027 21.7472 56.027C20.4176 56.027 19.5355 57.0753 19.5355 58.5838C19.5355 60.0923 20.4048 61.1023 21.8239 61.1023ZM20.293 58.1491C20.3441 57.3853 20.8842 56.7045 21.7472 56.7045C22.5653 56.7045 23.0895 57.3182 23.0895 58.1491H20.293ZM31.017 56.0909H31.784C31.7489 55.1033 30.838 54.3651 29.5724 54.3651C28.3195 54.3651 27.3352 55.0938 27.3352 56.1932C27.3352 57.0753 27.9744 57.5994 28.9971 57.8935L29.8025 58.1236C30.4928 58.3153 31.1065 58.5582 31.1065 59.2102C31.1065 59.9261 30.4161 60.3991 29.5085 60.3991C28.7286 60.3991 28.0383 60.054 27.9744 59.3125H27.1562C27.2329 60.3864 28.1022 61.1151 29.5085 61.1151C31.017 61.1151 31.8735 60.2841 31.8735 59.223C31.8735 57.9957 30.7102 57.5994 30.0326 57.4205L29.3678 57.2415C28.882 57.1136 28.1022 56.858 28.1022 56.1548C28.1022 55.5284 28.6775 55.0682 29.5468 55.0682C30.3394 55.0682 30.9403 55.4453 31.017 56.0909ZM34.9687 61.1023C36.0554 61.1023 36.7713 60.4375 36.8991 59.5682H36.1449C36.0043 60.1051 35.5568 60.4247 34.9687 60.4247C34.0739 60.4247 33.4986 59.6832 33.4986 58.5455C33.4986 57.4332 34.0866 56.7045 34.9687 56.7045C35.6335 56.7045 36.0298 57.1136 36.1449 57.5611H36.8991C36.7713 56.6406 35.9915 56.027 34.956 56.027C33.6264 56.027 32.7443 57.0753 32.7443 58.571C32.7443 60.0412 33.5881 61.1023 34.9687 61.1023ZM37.9018 61H38.656V57.8935C38.656 57.2287 39.1802 56.7429 39.8961 56.7429C40.0974 56.7429 40.3052 56.7812 40.3563 56.794V56.027C40.27 56.0206 40.0719 56.0142 39.96 56.0142C39.3719 56.0142 38.8606 56.3466 38.6816 56.8324H38.6305V56.0909H37.9018V61ZM43.0592 61.1023C44.0564 61.1023 44.7851 60.6037 45.0152 59.8622L44.2865 59.6577C44.0947 60.169 43.6505 60.4247 43.0592 60.4247C42.1739 60.4247 41.5635 59.8526 41.5283 58.8011H45.0919V58.4815C45.0919 56.6534 44.0052 56.027 42.9825 56.027C41.653 56.027 40.7709 57.0753 40.7709 58.5838C40.7709 60.0923 41.6402 61.1023 43.0592 61.1023ZM41.5283 58.1491C41.5795 57.3853 42.1196 56.7045 42.9825 56.7045C43.8007 56.7045 44.3248 57.3182 44.3248 58.1491H41.5283ZM48.1975 61.1023C49.1947 61.1023 49.9234 60.6037 50.1535 59.8622L49.4248 59.6577C49.233 60.169 48.7888 60.4247 48.1975 60.4247C47.3122 60.4247 46.7018 59.8526 46.6666 58.8011H50.2302V58.4815C50.2302 56.6534 49.1435 56.027 48.1208 56.027C46.7913 56.027 45.9092 57.0753 45.9092 58.5838C45.9092 60.0923 46.7785 61.1023 48.1975 61.1023ZM46.6666 58.1491C46.7177 57.3853 47.2579 56.7045 48.1208 56.7045C48.939 56.7045 49.4631 57.3182 49.4631 58.1491H46.6666ZM52.0318 58.0469C52.0318 57.1903 52.5623 56.7045 53.2847 56.7045C53.9846 56.7045 54.4097 57.1616 54.4097 57.9318V61H55.1639V57.8807C55.1639 56.6278 54.4959 56.027 53.502 56.027C52.7605 56.027 52.3003 56.3594 52.0702 56.858H52.0062V56.0909H51.2775V61H52.0318V58.0469Z" fill="#141414" fill-opacity="0.6"/>
</svg>
