<svg width="63" height="64" viewBox="0 0 63 64" fill="none" xmlns="http://www.w3.org/2000/svg">
<path d="M4.37216 57.0909H5.1392C5.10405 56.1033 4.19318 55.3651 2.92756 55.3651C1.67472 55.3651 0.690341 56.0938 0.690341 57.1932C0.690341 58.0753 1.32955 58.5994 2.35227 58.8935L3.15767 59.1236C3.84801 59.3153 4.46165 59.5582 4.46165 60.2102C4.46165 60.9261 3.77131 61.3991 2.86364 61.3991C2.08381 61.3991 1.39347 61.054 1.32955 60.3125H0.511364C0.588068 61.3864 1.45739 62.1151 2.86364 62.1151C4.37216 62.1151 5.22869 61.2841 5.22869 60.223C5.22869 58.9957 4.06534 58.5994 3.38778 58.4205L2.72301 58.2415C2.23722 58.1136 1.45739 57.858 1.45739 57.1548C1.45739 56.5284 2.03267 56.0682 2.90199 56.0682C3.6946 56.0682 4.29545 56.4453 4.37216 57.0909ZM7.08386 59.0469C7.08386 58.1903 7.63038 57.7045 8.37505 57.7045C9.08457 57.7045 9.51284 58.152 9.51284 58.9318V62H10.2671V58.8807C10.2671 57.6183 9.59593 57.027 8.59238 57.027C7.81895 57.027 7.37789 57.3498 7.14778 57.858H7.08386V55.4545H6.3296V62H7.08386V59.0469ZM12.9916 62.1151C13.8481 62.1151 14.2956 61.6548 14.449 61.3352H14.4873V62H15.2416V58.7656C15.2416 57.206 14.0527 57.027 13.4262 57.027C12.6848 57.027 11.841 57.2827 11.4575 58.1776L12.1734 58.4332C12.3396 58.0753 12.7327 57.6918 13.4518 57.6918C14.1453 57.6918 14.4873 58.0593 14.4873 58.6889V58.7145C14.4873 59.0788 14.1166 59.0469 13.2217 59.1619C12.3108 59.2802 11.3169 59.4815 11.3169 60.6065C11.3169 61.5653 12.0583 62.1151 12.9916 62.1151ZM13.1066 61.4375C12.5058 61.4375 12.0711 61.169 12.0711 60.6449C12.0711 60.0696 12.5953 59.8906 13.1833 59.8139C13.5029 59.7756 14.3595 59.6861 14.4873 59.5327V60.223C14.4873 60.8366 14.0015 61.4375 13.1066 61.4375ZM16.5183 62H17.2725V58.8935C17.2725 58.2287 17.7967 57.7429 18.5126 57.7429C18.7139 57.7429 18.9217 57.7812 18.9728 57.794V57.027C18.8865 57.0206 18.6884 57.0142 18.5765 57.0142C17.9884 57.0142 17.4771 57.3466 17.2981 57.8324H17.247V57.0909H16.5183V62ZM21.6757 62.1023C22.6729 62.1023 23.4016 61.6037 23.6317 60.8622L22.903 60.6577C22.7112 61.169 22.267 61.4247 21.6757 61.4247C20.7904 61.4247 20.18 60.8526 20.1448 59.8011H23.7084V59.4815C23.7084 57.6534 22.6218 57.027 21.599 57.027C20.2695 57.027 19.3874 58.0753 19.3874 59.5838C19.3874 61.0923 20.2567 62.1023 21.6757 62.1023ZM20.1448 59.1491C20.196 58.3853 20.7361 57.7045 21.599 57.7045C22.4172 57.7045 22.9414 58.3182 22.9414 59.1491H20.1448ZM27.2893 62H31.1245V61.2969H28.0819V55.4545H27.2893V62ZM34.1438 62.1023C35.4734 62.1023 36.3683 61.0923 36.3683 59.571C36.3683 58.0369 35.4734 57.027 34.1438 57.027C32.8143 57.027 31.9194 58.0369 31.9194 59.571C31.9194 61.0923 32.8143 62.1023 34.1438 62.1023ZM34.1438 61.4247C33.1339 61.4247 32.6737 60.5554 32.6737 59.571C32.6737 58.5866 33.1339 57.7045 34.1438 57.7045C35.1538 57.7045 35.614 58.5866 35.614 59.571C35.614 60.5554 35.1538 61.4247 34.1438 61.4247ZM39.414 62.1023C40.5006 62.1023 41.2165 61.4375 41.3444 60.5682H40.5901C40.4495 61.1051 40.002 61.4247 39.414 61.4247C38.5191 61.4247 37.9438 60.6832 37.9438 59.5455C37.9438 58.4332 38.5319 57.7045 39.414 57.7045C40.0787 57.7045 40.475 58.1136 40.5901 58.5611H41.3444C41.2165 57.6406 40.4367 57.027 39.4012 57.027C38.0716 57.027 37.1895 58.0753 37.1895 59.571C37.1895 61.0412 38.0333 62.1023 39.414 62.1023ZM43.7916 62.1151C44.6481 62.1151 45.0956 61.6548 45.249 61.3352H45.2873V62H46.0416V58.7656C46.0416 57.206 44.8527 57.027 44.2262 57.027C43.4848 57.027 42.641 57.2827 42.2575 58.1776L42.9734 58.4332C43.1396 58.0753 43.5327 57.6918 44.2518 57.6918C44.9453 57.6918 45.2873 58.0593 45.2873 58.6889V58.7145C45.2873 59.0788 44.9166 59.0469 44.0217 59.1619C43.1108 59.2802 42.1169 59.4815 42.1169 60.6065C42.1169 61.5653 42.8583 62.1151 43.7916 62.1151ZM43.9066 61.4375C43.3058 61.4375 42.8711 61.169 42.8711 60.6449C42.8711 60.0696 43.3953 59.8906 43.9833 59.8139C44.3029 59.7756 45.1595 59.6861 45.2873 59.5327V60.223C45.2873 60.8366 44.8015 61.4375 43.9066 61.4375ZM49.4532 57.0909H48.4049V55.9148H47.6507V57.0909H46.9092V57.7301H47.6507V60.7983C47.6507 61.6548 48.341 62.0639 48.9802 62.0639C49.2615 62.0639 49.4404 62.0128 49.5427 61.9744L49.3893 61.2969C49.3254 61.3097 49.2231 61.3352 49.0569 61.3352C48.7245 61.3352 48.4049 61.233 48.4049 60.5938V57.7301H49.4532V57.0909ZM50.4878 62H51.2421V57.0909H50.4878V62ZM50.8713 56.2727C51.1654 56.2727 51.4083 56.0426 51.4083 55.7614C51.4083 55.4801 51.1654 55.25 50.8713 55.25C50.5773 55.25 50.3344 55.4801 50.3344 55.7614C50.3344 56.0426 50.5773 56.2727 50.8713 56.2727ZM54.5179 62.1023C55.8474 62.1023 56.7423 61.0923 56.7423 59.571C56.7423 58.0369 55.8474 57.027 54.5179 57.027C53.1883 57.027 52.2934 58.0369 52.2934 59.571C52.2934 61.0923 53.1883 62.1023 54.5179 62.1023ZM54.5179 61.4247C53.5079 61.4247 53.0477 60.5554 53.0477 59.571C53.0477 58.5866 53.5079 57.7045 54.5179 57.7045C55.5278 57.7045 55.988 58.5866 55.988 59.571C55.988 60.5554 55.5278 61.4247 54.5179 61.4247ZM58.5479 59.0469C58.5479 58.1903 59.0785 57.7045 59.8008 57.7045C60.5007 57.7045 60.9258 58.1616 60.9258 58.9318V62H61.68V58.8807C61.68 57.6278 61.0121 57.027 60.0181 57.027C59.2766 57.027 58.8164 57.3594 58.5863 57.858H58.5224V57.0909H57.7937V62H58.5479V59.0469Z" fill="#141414" fill-opacity="0.6"/>
<rect x="8" width="48" height="48" rx="24" fill="#F4CEDA"/>
<path d="M31.9999 25.1917C33.4358 25.1917 34.5999 24.0276 34.5999 22.5917C34.5999 21.1557 33.4358 19.9917 31.9999 19.9917C30.564 19.9917 29.3999 21.1557 29.3999 22.5917C29.3999 24.0276 30.564 25.1917 31.9999 25.1917Z" stroke="#B34265" stroke-width="1.25"/>
<path d="M25.0167 21.075C26.6584 13.8583 37.3501 13.8667 38.9834 21.0833C39.9418 25.3167 37.3084 28.9 35.0001 31.1167C33.3251 32.7333 30.6751 32.7333 28.9918 31.1167C26.6918 28.9 24.0584 25.3083 25.0167 21.075Z" stroke="#B34265" stroke-width="1.25"/>
</svg>
