<svg width="24" height="24" viewBox="0 0 24 24" fill="none" xmlns="http://www.w3.org/2000/svg">
<path fill-rule="evenodd" clip-rule="evenodd" d="M5 5C3.34315 5 2 6.34315 2 8V17C2 18.6569 3.34315 20 5 20H19C20.6569 20 22 18.6569 22 17V8C22 6.34315 20.6569 5 19 5H5ZM20 17C20 17.5523 19.5523 18 19 18H12V7H19C19.5523 7 20 7.44772 20 8V17ZM18.3571 9H13.6429C13.2914 9 13 9.34 13 9.75C13 10.16 13.2914 10.5 13.6429 10.5H18.3571C18.7086 10.5 19 10.16 19 9.75C19 9.34 18.7086 9 18.3571 9ZM18.3571 12H13.6429C13.2914 12 13 12.34 13 12.75C13 13.16 13.2914 13.5 13.6429 13.5H18.3571C18.7086 13.5 19 13.16 19 12.75C19 12.34 18.7086 12 18.3571 12ZM18.3571 15H13.6429C13.2914 15 13 15.34 13 15.75C13 16.16 13.2914 16.5 13.6429 16.5H18.3571C18.7086 16.5 19 16.16 19 15.75C19 15.34 18.7086 15 18.3571 15Z" fill="#3399FF"/>
</svg>
