<svg width="48" height="63" viewBox="0 0 48 63" fill="none" xmlns="http://www.w3.org/2000/svg">
<rect width="48" height="48" rx="24" fill="#E7D8F5"/>
<path d="M31.5 19.8333V28.1667C31.5 30.6667 30.25 32.3333 27.3333 32.3333H20.6667C17.75 32.3333 16.5 30.6667 16.5 28.1667V19.8333C16.5 17.3333 17.75 15.6667 20.6667 15.6667H27.3333C30.25 15.6667 31.5 17.3333 31.5 19.8333Z" stroke="#62229D" stroke-width="1.25" stroke-miterlimit="10" stroke-linecap="round" stroke-linejoin="round"/>
<path d="M26.0835 17.75V19.4167C26.0835 20.3333 26.8335 21.0833 27.7502 21.0833H29.4168" stroke="#62229D" stroke-width="1.25" stroke-miterlimit="10" stroke-linecap="round" stroke-linejoin="round"/>
<path d="M20.2336 26.9083C19.9586 26.05 20.2836 24.9917 21.1753 24.7C21.6503 24.55 22.2336 24.675 22.5586 25.1333C22.8669 24.6583 23.4753 24.55 23.9419 24.7C24.8419 24.9917 25.1586 26.05 24.8919 26.9083C24.4669 28.2666 22.9753 28.975 22.5586 28.975C22.1503 28.9666 20.6753 28.275 20.2336 26.9083Z" stroke="#62229D" stroke-width="1.25" stroke-linecap="round" stroke-linejoin="round"/>
<path d="M14.3722 56.0909H15.1392C15.104 55.1033 14.1932 54.3651 12.9276 54.3651C11.6747 54.3651 10.6903 55.0938 10.6903 56.1932C10.6903 57.0753 11.3295 57.5994 12.3523 57.8935L13.1577 58.1236C13.848 58.3153 14.4616 58.5582 14.4616 59.2102C14.4616 59.9261 13.7713 60.3991 12.8636 60.3991C12.0838 60.3991 11.3935 60.054 11.3295 59.3125H10.5114C10.5881 60.3864 11.4574 61.1151 12.8636 61.1151C14.3722 61.1151 15.2287 60.2841 15.2287 59.223C15.2287 57.9957 14.0653 57.5994 13.3878 57.4205L12.723 57.2415C12.2372 57.1136 11.4574 56.858 11.4574 56.1548C11.4574 55.5284 12.0327 55.0682 12.902 55.0682C13.6946 55.0682 14.2955 55.4453 14.3722 56.0909ZM18.4645 56.0909H17.4162V54.9148H16.662V56.0909H15.9205V56.7301H16.662V59.7983C16.662 60.6548 17.3523 61.0639 17.9915 61.0639C18.2728 61.0639 18.4518 61.0128 18.554 60.9744L18.4006 60.2969C18.3367 60.3097 18.2344 60.3352 18.0682 60.3352C17.7358 60.3352 17.4162 60.233 17.4162 59.5938V56.7301H18.4645V56.0909ZM19.4991 61H20.2534V56.0909H19.4991V61ZM19.8827 55.2727C20.1767 55.2727 20.4196 55.0426 20.4196 54.7614C20.4196 54.4801 20.1767 54.25 19.8827 54.25C19.5886 54.25 19.3457 54.4801 19.3457 54.7614C19.3457 55.0426 19.5886 55.2727 19.8827 55.2727ZM23.5292 61.1023C24.6158 61.1023 25.3317 60.4375 25.4596 59.5682H24.7053C24.5647 60.1051 24.1173 60.4247 23.5292 60.4247C22.6343 60.4247 22.059 59.6832 22.059 58.5455C22.059 57.4332 22.6471 56.7045 23.5292 56.7045C24.194 56.7045 24.5903 57.1136 24.7053 57.5611H25.4596C25.3317 56.6406 24.5519 56.027 23.5164 56.027C22.1869 56.027 21.3048 57.0753 21.3048 58.571C21.3048 60.0412 22.1485 61.1023 23.5292 61.1023ZM26.4622 61H27.2165V59.1623L27.7438 58.6733L29.5815 61H30.5403L28.3127 58.1875L30.3869 56.0909H29.4537L27.306 58.277H27.2165V54.4545H26.4622V61ZM33.1138 61.1023C34.111 61.1023 34.8397 60.6037 35.0698 59.8622L34.3411 59.6577C34.1493 60.169 33.7051 60.4247 33.1138 60.4247C32.2285 60.4247 31.6181 59.8526 31.5829 58.8011H35.1465V58.4815C35.1465 56.6534 34.0598 56.027 33.0371 56.027C31.7076 56.027 30.8255 57.0753 30.8255 58.5838C30.8255 60.0923 31.6948 61.1023 33.1138 61.1023ZM31.5829 58.1491C31.6341 57.3853 32.1742 56.7045 33.0371 56.7045C33.8553 56.7045 34.3794 57.3182 34.3794 58.1491H31.5829ZM36.1939 61H36.9481V57.8935C36.9481 57.2287 37.4723 56.7429 38.1882 56.7429C38.3895 56.7429 38.5973 56.7812 38.6484 56.794V56.027C38.5621 56.0206 38.364 56.0142 38.2521 56.0142C37.664 56.0142 37.1527 56.3466 36.9737 56.8324H36.9225V56.0909H36.1939V61Z" fill="#141414" fill-opacity="0.6"/>
</svg>
