<svg width="20" height="20" viewBox="0 0 20 20" fill="none" xmlns="http://www.w3.org/2000/svg">
<path d="M15.8831 15.5583L14.0997 12L12.3164 15.5583" stroke="#C59713" stroke-width="1.25" stroke-linecap="round" stroke-linejoin="round"/>
<path d="M12.6416 14.925H15.5749" stroke="#C59713" stroke-width="1.25" stroke-linecap="round" stroke-linejoin="round"/>
<path d="M14.1 18.3333C11.7667 18.3333 9.8667 16.4417 9.8667 14.1C9.8667 11.7667 11.7584 9.86669 14.1 9.86669C16.4334 9.86669 18.3334 11.7583 18.3334 14.1C18.3334 16.4417 16.4417 18.3333 14.1 18.3333Z" stroke="#C59713" stroke-width="1.25" stroke-linecap="round" stroke-linejoin="round"/>
<path d="M4.18317 1.66666H7.44984C9.17484 1.66666 10.0082 2.50001 9.96651 4.18335V7.45C10.0082 9.175 9.17484 10.0083 7.44984 9.96668H4.18317C2.49984 10 1.6665 9.16666 1.6665 7.44166V4.17501C1.6665 2.50001 2.49984 1.66666 4.18317 1.66666Z" stroke="#C59713" stroke-width="1.25" stroke-linecap="round" stroke-linejoin="round"/>
<path d="M7.50833 4.87498H4.125" stroke="#C59713" stroke-width="1.25" stroke-linecap="round" stroke-linejoin="round"/>
<path d="M5.80811 4.30832V4.87498" stroke="#C59713" stroke-width="1.25" stroke-linecap="round" stroke-linejoin="round"/>
<path d="M6.65837 4.86669C6.65837 6.32502 5.5167 7.50834 4.1167 7.50834" stroke="#C59713" stroke-width="1.25" stroke-linecap="round" stroke-linejoin="round"/>
<path d="M7.50846 7.50834C6.90012 7.50834 6.35013 7.18333 5.9668 6.66666" stroke="#C59713" stroke-width="1.25" stroke-linecap="round" stroke-linejoin="round"/>
<path d="M1.66699 12.5C1.66699 15.725 4.27533 18.3333 7.50033 18.3333L6.62532 16.875" stroke="#C59713" stroke-width="1.25" stroke-linecap="round" stroke-linejoin="round"/>
<path d="M18.3338 7.5C18.3338 4.275 15.7255 1.66666 12.5005 1.66666L13.3755 3.125" stroke="#C59713" stroke-width="1.25" stroke-linecap="round" stroke-linejoin="round"/>
</svg>
