<svg width="48" height="64" viewBox="0 0 48 64" fill="none" xmlns="http://www.w3.org/2000/svg">
<path d="M3.06108 55.4545H2.23011L4.63352 62H5.4517L7.85511 55.4545H7.02415L5.08097 60.9645H5.00426L3.06108 55.4545ZM10.2097 62.1023C11.5392 62.1023 12.4341 61.0923 12.4341 59.571C12.4341 58.0369 11.5392 57.027 10.2097 57.027C8.88011 57.027 7.98523 58.0369 7.98523 59.571C7.98523 61.0923 8.88011 62.1023 10.2097 62.1023ZM10.2097 61.4247C9.19972 61.4247 8.73949 60.5554 8.73949 59.571C8.73949 58.5866 9.19972 57.7045 10.2097 57.7045C11.2196 57.7045 11.6798 58.5866 11.6798 59.571C11.6798 60.5554 11.2196 61.4247 10.2097 61.4247ZM13.4855 62H14.2397V57.0909H13.4855V62ZM13.869 56.2727C14.163 56.2727 14.4059 56.0426 14.4059 55.7614C14.4059 55.4801 14.163 55.25 13.869 55.25C13.5749 55.25 13.332 55.4801 13.332 55.7614C13.332 56.0426 13.5749 56.2727 13.869 56.2727ZM17.5155 62.1023C18.6022 62.1023 19.3181 61.4375 19.4459 60.5682H18.6917C18.551 61.1051 18.1036 61.4247 17.5155 61.4247C16.6206 61.4247 16.0453 60.6832 16.0453 59.5455C16.0453 58.4332 16.6334 57.7045 17.5155 57.7045C18.1803 57.7045 18.5766 58.1136 18.6917 58.5611H19.4459C19.3181 57.6406 18.5382 57.027 17.5027 57.027C16.1732 57.027 15.2911 58.0753 15.2911 59.571C15.2911 61.0412 16.1348 62.1023 17.5155 62.1023ZM22.5068 62.1023C23.5039 62.1023 24.2326 61.6037 24.4627 60.8622L23.7341 60.6577C23.5423 61.169 23.098 61.4247 22.5068 61.4247C21.6215 61.4247 21.011 60.8526 20.9759 59.8011H24.5395V59.4815C24.5395 57.6534 23.4528 57.027 22.4301 57.027C21.1005 57.027 20.2184 58.0753 20.2184 59.5838C20.2184 61.0923 21.0877 62.1023 22.5068 62.1023ZM20.9759 59.1491C21.027 58.3853 21.5672 57.7045 22.4301 57.7045C23.2483 57.7045 23.7724 58.3182 23.7724 59.1491H20.9759ZM28.7723 59.0469C28.7723 58.1903 29.3029 57.7045 30.0252 57.7045C30.7251 57.7045 31.1502 58.1616 31.1502 58.9318V62H31.9044V58.8807C31.9044 57.6278 31.2365 57.027 30.2425 57.027C29.501 57.027 29.0408 57.3594 28.8107 57.858H28.7468V57.0909H28.0181V62H28.7723V59.0469ZM35.177 62.1023C36.5066 62.1023 37.4015 61.0923 37.4015 59.571C37.4015 58.0369 36.5066 57.027 35.177 57.027C33.8475 57.027 32.9526 58.0369 32.9526 59.571C32.9526 61.0923 33.8475 62.1023 35.177 62.1023ZM35.177 61.4247C34.1671 61.4247 33.7069 60.5554 33.7069 59.571C33.7069 58.5866 34.1671 57.7045 35.177 57.7045C36.187 57.7045 36.6472 58.5866 36.6472 59.571C36.6472 60.5554 36.187 61.4247 35.177 61.4247ZM40.5878 57.0909H39.5395V55.9148H38.7852V57.0909H38.0438V57.7301H38.7852V60.7983C38.7852 61.6548 39.4756 62.0639 40.1148 62.0639C40.396 62.0639 40.575 62.0128 40.6773 61.9744L40.5239 61.2969C40.4599 61.3097 40.3577 61.3352 40.1915 61.3352C39.8591 61.3352 39.5395 61.233 39.5395 60.5938V57.7301H40.5878V57.0909ZM43.6279 62.1023C44.625 62.1023 45.3537 61.6037 45.5838 60.8622L44.8551 60.6577C44.6634 61.169 44.2191 61.4247 43.6279 61.4247C42.7426 61.4247 42.1321 60.8526 42.097 59.8011H45.6605V59.4815C45.6605 57.6534 44.5739 57.027 43.5512 57.027C42.2216 57.027 41.3395 58.0753 41.3395 59.5838C41.3395 61.0923 42.2088 62.1023 43.6279 62.1023ZM42.097 59.1491C42.1481 58.3853 42.6882 57.7045 43.5512 57.7045C44.3694 57.7045 44.8935 58.3182 44.8935 59.1491H42.097Z" fill="#141414" fill-opacity="0.6"/>
<rect width="48" height="48" rx="24" fill="#F5D8EE"/>
<path d="M23.9998 26.9167C25.8415 26.9167 27.3332 25.425 27.3332 23.5833V19C27.3332 17.1583 25.8415 15.6667 23.9998 15.6667C22.1582 15.6667 20.6665 17.1583 20.6665 19V23.5833C20.6665 25.425 22.1582 26.9167 23.9998 26.9167Z" stroke="#CF2DA8" stroke-width="1.25" stroke-linecap="round" stroke-linejoin="round"/>
<path d="M17.625 22.0417V23.4583C17.625 26.975 20.4833 29.8333 24 29.8333C27.5167 29.8333 30.375 26.975 30.375 23.4583V22.0417" stroke="#CF2DA8" stroke-width="1.25" stroke-linecap="round" stroke-linejoin="round"/>
<path d="M22.8418 19.3583C23.5918 19.0833 24.4085 19.0833 25.1585 19.3583" stroke="#CF2DA8" stroke-width="1.25" stroke-linecap="round" stroke-linejoin="round"/>
<path d="M23.3335 21.125C23.7752 21.0083 24.2335 21.0083 24.6752 21.125" stroke="#CF2DA8" stroke-width="1.25" stroke-linecap="round" stroke-linejoin="round"/>
<path d="M24 29.8333V32.3333" stroke="#CF2DA8" stroke-width="1.25" stroke-linecap="round" stroke-linejoin="round"/>
</svg>
