<svg width="49" height="64" viewBox="0 0 49 64" fill="none" xmlns="http://www.w3.org/2000/svg">
<path d="M1.98153 62H2.79972L4.24432 56.7841H4.29545L5.74006 62H6.55824L8.34801 55.4545H7.54261L6.17472 60.7855H6.1108L4.71733 55.4545H3.82244L2.42898 60.7855H2.36506L0.997159 55.4545H0.191761L1.98153 62ZM9.88757 59.0469C9.88757 58.1903 10.4341 57.7045 11.1788 57.7045C11.8883 57.7045 12.3165 58.152 12.3165 58.9318V62H13.0708V58.8807C13.0708 57.6183 12.3996 57.027 11.3961 57.027C10.6227 57.027 10.1816 57.3498 9.95149 57.858H9.88757V55.4545H9.13331V62H9.88757V59.0469ZM14.3507 62H15.105V57.0909H14.3507V62ZM14.7342 56.2727C15.0282 56.2727 15.2711 56.0426 15.2711 55.7614C15.2711 55.4801 15.0282 55.25 14.7342 55.25C14.4402 55.25 14.1973 55.4801 14.1973 55.7614C14.1973 56.0426 14.4402 56.2727 14.7342 56.2727ZM18.5214 57.0909H17.4731V55.9148H16.7188V57.0909H15.9773V57.7301H16.7188V60.7983C16.7188 61.6548 17.4092 62.0639 18.0484 62.0639C18.3296 62.0639 18.5086 62.0128 18.6109 61.9744L18.4575 61.2969C18.3935 61.3097 18.2913 61.3352 18.1251 61.3352C17.7927 61.3352 17.4731 61.233 17.4731 60.5938V57.7301H18.5214V57.0909ZM21.5615 62.1023C22.5586 62.1023 23.2873 61.6037 23.5174 60.8622L22.7887 60.6577C22.597 61.169 22.1527 61.4247 21.5615 61.4247C20.6762 61.4247 20.0657 60.8526 20.0306 59.8011H23.5941V59.4815C23.5941 57.6534 22.5075 57.027 21.4848 57.027C20.1552 57.027 19.2731 58.0753 19.2731 59.5838C19.2731 61.0923 20.1424 62.1023 21.5615 62.1023ZM20.0306 59.1491C20.0817 58.3853 20.6218 57.7045 21.4848 57.7045C22.3029 57.7045 22.8271 58.3182 22.8271 59.1491H20.0306ZM24.7438 62H25.4725V61.2457H25.562C25.7282 61.5142 26.0478 62.1023 26.9938 62.1023C28.2211 62.1023 29.0776 61.1179 29.0776 59.5582C29.0776 58.0114 28.2211 57.027 26.981 57.027C26.0222 57.027 25.7282 57.6151 25.562 57.8707H25.498V55.4545H24.7438V62ZM25.4853 59.5455C25.4853 58.446 25.9711 57.7045 26.8915 57.7045C27.8503 57.7045 28.3233 58.5099 28.3233 59.5455C28.3233 60.5938 27.8375 61.4247 26.8915 61.4247C25.9838 61.4247 25.4853 60.6577 25.4853 59.5455ZM32.1257 62.1023C33.4552 62.1023 34.3501 61.0923 34.3501 59.571C34.3501 58.0369 33.4552 57.027 32.1257 57.027C30.7961 57.027 29.9012 58.0369 29.9012 59.571C29.9012 61.0923 30.7961 62.1023 32.1257 62.1023ZM32.1257 61.4247C31.1157 61.4247 30.6555 60.5554 30.6555 59.571C30.6555 58.5866 31.1157 57.7045 32.1257 57.7045C33.1356 57.7045 33.5958 58.5866 33.5958 59.571C33.5958 60.5554 33.1356 61.4247 32.1257 61.4247ZM36.8461 62.1151C37.7026 62.1151 38.1501 61.6548 38.3035 61.3352H38.3418V62H39.0961V58.7656C39.0961 57.206 37.9072 57.027 37.2807 57.027C36.5393 57.027 35.6955 57.2827 35.312 58.1776L36.0279 58.4332C36.1941 58.0753 36.5872 57.6918 37.3063 57.6918C37.9998 57.6918 38.3418 58.0593 38.3418 58.6889V58.7145C38.3418 59.0788 37.9711 59.0469 37.0762 59.1619C36.1653 59.2802 35.1714 59.4815 35.1714 60.6065C35.1714 61.5653 35.9128 62.1151 36.8461 62.1151ZM36.9611 61.4375C36.3603 61.4375 35.9256 61.169 35.9256 60.6449C35.9256 60.0696 36.4498 59.8906 37.0378 59.8139C37.3574 59.7756 38.214 59.6861 38.3418 59.5327V60.223C38.3418 60.8366 37.856 61.4375 36.9611 61.4375ZM40.3728 62H41.127V58.8935C41.127 58.2287 41.6512 57.7429 42.3671 57.7429C42.5684 57.7429 42.7762 57.7812 42.8273 57.794V57.027C42.741 57.0206 42.5429 57.0142 42.431 57.0142C41.8429 57.0142 41.3316 57.3466 41.1526 57.8324H41.1015V57.0909H40.3728V62ZM45.3257 62.1023C46.2717 62.1023 46.5913 61.5142 46.7575 61.2457H46.847V62H47.5757V55.4545H46.8214V57.8707H46.7575C46.5913 57.6151 46.2973 57.027 45.3385 57.027C44.0984 57.027 43.2419 58.0114 43.2419 59.5582C43.2419 61.1179 44.0984 62.1023 45.3257 62.1023ZM45.4279 61.4247C44.4819 61.4247 43.9961 60.5938 43.9961 59.5455C43.9961 58.5099 44.4691 57.7045 45.4279 57.7045C46.3484 57.7045 46.8342 58.446 46.8342 59.5455C46.8342 60.6577 46.3356 61.4247 45.4279 61.4247Z" fill="#141414" fill-opacity="0.6"/>
<rect x="1" width="48" height="48" rx="24" fill="#F1F2BA"/>
<path d="M21.2502 17.3333H28.7502C29.2668 17.3333 29.7252 17.35 30.1335 17.4083C32.3252 17.65 32.9168 18.6833 32.9168 21.5V26.5C32.9168 29.3167 32.3252 30.35 30.1335 30.5917C29.7252 30.65 29.2668 30.6667 28.7502 30.6667H21.2502C20.7335 30.6667 20.2752 30.65 19.8668 30.5917C17.6752 30.35 17.0835 29.3167 17.0835 26.5V21.5C17.0835 18.6833 17.6752 17.65 19.8668 17.4083C20.2752 17.35 20.7335 17.3333 21.2502 17.3333Z" stroke="#ADAF23" stroke-width="1.25" stroke-linecap="round" stroke-linejoin="round"/>
<path d="M26.25 22.3333H29.1667" stroke="#ADAF23" stroke-width="1.25" stroke-linecap="round" stroke-linejoin="round"/>
<path d="M20.8335 26.9167H20.8502H29.1668" stroke="#ADAF23" stroke-width="1.25" stroke-linecap="round" stroke-linejoin="round"/>
<path d="M23.4121 22.3333H23.4196" stroke="#ADAF23" stroke-width="1.66667" stroke-linecap="round" stroke-linejoin="round"/>
<path d="M20.9121 22.3333H20.9196" stroke="#ADAF23" stroke-width="1.66667" stroke-linecap="round" stroke-linejoin="round"/>
</svg>
