<svg width="53" height="74" viewBox="0 0 53 74" fill="none" xmlns="http://www.w3.org/2000/svg">
<rect x="3" width="48" height="48" rx="24" fill="#F1E5C2"/>
<path d="M32.8831 29.5583L31.0997 26L29.3164 29.5583" stroke="#C59713" stroke-width="1.25" stroke-linecap="round" stroke-linejoin="round"/>
<path d="M29.6416 28.925H32.5749" stroke="#C59713" stroke-width="1.25" stroke-linecap="round" stroke-linejoin="round"/>
<path d="M31.1 32.3333C28.7667 32.3333 26.8667 30.4417 26.8667 28.1C26.8667 25.7667 28.7584 23.8667 31.1 23.8667C33.4334 23.8667 35.3334 25.7583 35.3334 28.1C35.3334 30.4417 33.4417 32.3333 31.1 32.3333Z" stroke="#C59713" stroke-width="1.25" stroke-linecap="round" stroke-linejoin="round"/>
<path d="M21.1832 15.6667H24.4498C26.1748 15.6667 27.0082 16.5 26.9665 18.1833V21.45C27.0082 23.175 26.1748 24.0083 24.4498 23.9667H21.1832C19.4998 24 18.6665 23.1667 18.6665 21.4417V18.175C18.6665 16.5 19.4998 15.6667 21.1832 15.6667Z" stroke="#C59713" stroke-width="1.25" stroke-linecap="round" stroke-linejoin="round"/>
<path d="M24.5083 18.875H21.125" stroke="#C59713" stroke-width="1.25" stroke-linecap="round" stroke-linejoin="round"/>
<path d="M22.8081 18.3083V18.875" stroke="#C59713" stroke-width="1.25" stroke-linecap="round" stroke-linejoin="round"/>
<path d="M23.6584 18.8667C23.6584 20.325 22.5167 21.5083 21.1167 21.5083" stroke="#C59713" stroke-width="1.25" stroke-linecap="round" stroke-linejoin="round"/>
<path d="M24.5085 21.5083C23.9001 21.5083 23.3501 21.1833 22.9668 20.6667" stroke="#C59713" stroke-width="1.25" stroke-linecap="round" stroke-linejoin="round"/>
<path d="M18.667 26.5C18.667 29.725 21.2753 32.3333 24.5003 32.3333L23.6253 30.875" stroke="#C59713" stroke-width="1.25" stroke-linecap="round" stroke-linejoin="round"/>
<path d="M35.3338 21.5C35.3338 18.275 32.7255 15.6667 29.5005 15.6667L30.3755 17.125" stroke="#C59713" stroke-width="1.25" stroke-linecap="round" stroke-linejoin="round"/>
<path d="M2.41718 61H3.23536L4.67996 55.7841H4.7311L6.1757 61H6.99388L8.78366 54.4545H7.97826L6.61036 59.7855H6.54644L5.15297 54.4545H4.25809L2.86462 59.7855H2.8007L1.4328 54.4545H0.627406L2.41718 61ZM9.26134 61H10.0156V57.8935C10.0156 57.2287 10.5397 56.7429 11.2557 56.7429C11.457 56.7429 11.6647 56.7812 11.7159 56.794V56.027C11.6296 56.0206 11.4314 56.0142 11.3196 56.0142C10.7315 56.0142 10.2201 56.3466 10.0412 56.8324H9.99003V56.0909H9.26134V61ZM12.51 61H13.2642V56.0909H12.51V61ZM12.8935 55.2727C13.1875 55.2727 13.4304 55.0426 13.4304 54.7614C13.4304 54.4801 13.1875 54.25 12.8935 54.25C12.5995 54.25 12.3566 54.4801 12.3566 54.7614C12.3566 55.0426 12.5995 55.2727 12.8935 55.2727ZM16.6807 56.0909H15.6324V54.9148H14.8781V56.0909H14.1366V56.7301H14.8781V59.7983C14.8781 60.6548 15.5684 61.0639 16.2076 61.0639C16.4889 61.0639 16.6679 61.0128 16.7701 60.9744L16.6167 60.2969C16.5528 60.3097 16.4505 60.3352 16.2843 60.3352C15.952 60.3352 15.6324 60.233 15.6324 59.5938V56.7301H16.6807V56.0909ZM19.7207 61.1023C20.7179 61.1023 21.4466 60.6037 21.6767 59.8622L20.948 59.6577C20.7563 60.169 20.312 60.4247 19.7207 60.4247C18.8354 60.4247 18.225 59.8526 18.1899 58.8011H21.7534V58.4815C21.7534 56.6534 20.6668 56.027 19.644 56.027C18.3145 56.027 17.4324 57.0753 17.4324 58.5838C17.4324 60.0923 18.3017 61.1023 19.7207 61.1023ZM18.1899 58.1491C18.241 57.3853 18.7811 56.7045 19.644 56.7045C20.4622 56.7045 20.9864 57.3182 20.9864 58.1491H18.1899ZM25.232 61H25.9863V56.0909H25.232V61ZM25.6156 55.2727C25.9096 55.2727 26.1525 55.0426 26.1525 54.7614C26.1525 54.4801 25.9096 54.25 25.6156 54.25C25.3215 54.25 25.0786 54.4801 25.0786 54.7614C25.0786 55.0426 25.3215 55.2727 25.6156 55.2727ZM28.022 58.0469C28.022 57.1903 28.5526 56.7045 29.2749 56.7045C29.9748 56.7045 30.3999 57.1616 30.3999 57.9318V61H31.1541V57.8807C31.1541 56.6278 30.4862 56.027 29.4922 56.027C28.7507 56.027 28.2905 56.3594 28.0604 56.858H27.9965V56.0909H27.2678V61H28.022V58.0469ZM35.3495 62.8409C36.0302 62.8409 36.5096 62.4798 36.7941 61.7159L38.8843 56.1037L38.0597 56.0909L36.7046 60.0028H36.6535L35.2983 56.0909H34.4802L36.2955 61.0256L36.1549 61.4091C35.88 62.157 35.5412 62.2273 34.9915 62.0866L34.7998 62.7514C34.8765 62.7898 35.0938 62.8409 35.3495 62.8409ZM41.6008 61.1023C42.9303 61.1023 43.8252 60.0923 43.8252 58.571C43.8252 57.0369 42.9303 56.027 41.6008 56.027C40.2712 56.027 39.3763 57.0369 39.3763 58.571C39.3763 60.0923 40.2712 61.1023 41.6008 61.1023ZM41.6008 60.4247C40.5908 60.4247 40.1306 59.5554 40.1306 58.571C40.1306 57.5866 40.5908 56.7045 41.6008 56.7045C42.6107 56.7045 43.0709 57.5866 43.0709 58.571C43.0709 59.5554 42.6107 60.4247 41.6008 60.4247ZM47.9703 58.9929C47.9703 59.9134 47.2672 60.3352 46.7047 60.3352C46.0783 60.3352 45.6308 59.875 45.6308 59.1591V56.0909H44.8766V59.2102C44.8766 60.4631 45.5413 61.0639 46.4618 61.0639C47.2033 61.0639 47.6891 60.6676 47.9192 60.169H47.9703V61H48.7246V56.0909H47.9703V58.9929ZM50.0061 61H50.7603V57.8935C50.7603 57.2287 51.2845 56.7429 52.0004 56.7429C52.2017 56.7429 52.4095 56.7812 52.4606 56.794V56.027C52.3743 56.0206 52.1762 56.0142 52.0643 56.0142C51.4762 56.0142 50.9649 56.3466 50.7859 56.8324H50.7348V56.0909H50.0061V61ZM8.80486 65.4545H8.0506V72H8.80486V65.4545ZM11.5309 72.1151C12.3875 72.1151 12.8349 71.6548 12.9883 71.3352H13.0267V72H13.7809V68.7656C13.7809 67.206 12.592 67.027 11.9656 67.027C11.2241 67.027 10.3804 67.2827 9.99685 68.1776L10.7128 68.4332C10.879 68.0753 11.2721 67.6918 11.9912 67.6918C12.6847 67.6918 13.0267 68.0593 13.0267 68.6889V68.7145C13.0267 69.0788 12.6559 69.0469 11.7611 69.1619C10.8502 69.2802 9.85622 69.4815 9.85622 70.6065C9.85622 71.5653 10.5977 72.1151 11.5309 72.1151ZM11.646 71.4375C11.0451 71.4375 10.6105 71.169 10.6105 70.6449C10.6105 70.0696 11.1346 69.8906 11.7227 69.8139C12.0423 69.7756 12.8988 69.6861 13.0267 69.5327V70.223C13.0267 70.8366 12.5409 71.4375 11.646 71.4375ZM15.8119 69.0469C15.8119 68.1903 16.3424 67.7045 17.0647 67.7045C17.7647 67.7045 18.1897 68.1616 18.1897 68.9318V72H18.944V68.8807C18.944 67.6278 18.276 67.027 17.2821 67.027C16.5406 67.027 16.0804 67.3594 15.8502 67.858H15.7863V67.0909H15.0576V72H15.8119V69.0469ZM22.2038 73.9432C23.3799 73.9432 24.326 73.4062 24.326 72.1406V67.0909H23.5973V67.8707H23.5206C23.3544 67.6151 23.0476 67.027 22.0888 67.027C20.8487 67.027 19.9922 68.0114 19.9922 69.5199C19.9922 71.054 20.887 71.9233 22.076 71.9233C23.0348 71.9233 23.3416 71.3608 23.5078 71.0923H23.5717V72.0895C23.5717 72.9077 22.9964 73.2784 22.2038 73.2784C21.3121 73.2784 20.9989 72.8086 20.7976 72.5369L20.1967 72.9588C20.5035 73.4734 21.1076 73.9432 22.2038 73.9432ZM22.1782 71.2457C21.2322 71.2457 20.7464 70.5298 20.7464 69.5071C20.7464 68.5099 21.2194 67.7045 22.1782 67.7045C23.0987 67.7045 23.5845 68.446 23.5845 69.5071C23.5845 70.5938 23.0859 71.2457 22.1782 71.2457ZM28.7004 69.9929C28.7004 70.9134 27.9973 71.3352 27.4348 71.3352C26.8084 71.3352 26.3609 70.875 26.3609 70.1591V67.0909H25.6067V70.2102C25.6067 71.4631 26.2714 72.0639 27.1919 72.0639C27.9334 72.0639 28.4192 71.6676 28.6493 71.169H28.7004V72H29.4547V67.0909H28.7004V69.9929ZM32.1807 72.1151C33.0373 72.1151 33.4847 71.6548 33.6381 71.3352H33.6765V72H34.4307V68.7656C34.4307 67.206 33.2418 67.027 32.6154 67.027C31.8739 67.027 31.0302 67.2827 30.6467 68.1776L31.3626 68.4332C31.5288 68.0753 31.9219 67.6918 32.641 67.6918C33.3345 67.6918 33.6765 68.0593 33.6765 68.6889V68.7145C33.6765 69.0788 33.3057 69.0469 32.4109 69.1619C31.5 69.2802 30.506 69.4815 30.506 70.6065C30.506 71.5653 31.2475 72.1151 32.1807 72.1151ZM32.2958 71.4375C31.6949 71.4375 31.2603 71.169 31.2603 70.6449C31.2603 70.0696 31.7844 69.8906 32.3725 69.8139C32.6921 69.7756 33.5486 69.6861 33.6765 69.5327V70.223C33.6765 70.8366 33.1907 71.4375 32.2958 71.4375ZM37.689 73.9432C38.8651 73.9432 39.8111 73.4062 39.8111 72.1406V67.0909H39.0824V67.8707H39.0057C38.8395 67.6151 38.5327 67.027 37.5739 67.027C36.3339 67.027 35.4773 68.0114 35.4773 69.5199C35.4773 71.054 36.3722 71.9233 37.5611 71.9233C38.5199 71.9233 38.8267 71.3608 38.9929 71.0923H39.0569V72.0895C39.0569 72.9077 38.4816 73.2784 37.689 73.2784C36.7973 73.2784 36.4841 72.8086 36.2827 72.5369L35.6819 72.9588C35.9887 73.4734 36.5927 73.9432 37.689 73.9432ZM37.6634 71.2457C36.7174 71.2457 36.2316 70.5298 36.2316 69.5071C36.2316 68.5099 36.7046 67.7045 37.6634 67.7045C38.5839 67.7045 39.0696 68.446 39.0696 69.5071C39.0696 70.5938 38.5711 71.2457 37.6634 71.2457ZM43.15 72.1023C44.1472 72.1023 44.8759 71.6037 45.106 70.8622L44.3773 70.6577C44.1856 71.169 43.7413 71.4247 43.15 71.4247C42.2647 71.4247 41.6543 70.8526 41.6192 69.8011H45.1827V69.4815C45.1827 67.6534 44.0961 67.027 43.0733 67.027C41.7438 67.027 40.8617 68.0753 40.8617 69.5838C40.8617 71.0923 41.731 72.1023 43.15 72.1023ZM41.6192 69.1491C41.6703 68.3853 42.2104 67.7045 43.0733 67.7045C43.8915 67.7045 44.4157 68.3182 44.4157 69.1491H41.6192Z" fill="#141414" fill-opacity="0.6"/>
</svg>
